<svg width="254" height="290" viewBox="0 0 254 290" fill="none" xmlns="http://www.w3.org/2000/svg">
<path d="M259.8 130.6L190.6 170.6C189.2 171.4 188.1 173.4 188.1 175V331.1C188.1 332.7 189.2 333.4 190.6 332.6L259.8 292.6C261.2 291.8 262.3 289.8 262.3 288.2V132.1C262.3 130.5 261.2 129.8 259.8 130.6ZM258.7 273.8C258.7 275.2 257.7 276 256.5 276.7L193.6 313C192.4 313.7 191.4 313.1 191.4 311.8V189.6C191.4 188.2 192.4 186.6 193.6 185.9L256.5 149.6C257.7 148.9 258.7 149.5 258.7 150.8V273.8Z" fill="#2B454E"/>
<path d="M190.2 332.7C188.8 333.3 186.8 333.3 185.5 332.5L182.6 330.8C181.2 330 180.1 328.1 180.1 326.4V170.4C180.1 169.8 180.3 169.1 180.5 168.5C180.6 168.3 180.7 168.1 180.8 167.9L188.7 172.5C188.5 172.8 188.4 173.1 188.3 173.4C188.1 173.9 188 174.5 188 175V331.1C188 332.6 189 333.3 190.2 332.7Z" fill="#1A2E35"/>
<path d="M225.2 154C226.1 153.5 226.9 153.9 226.9 155C226.9 156.1 226.1 157.4 225.2 157.9C224.3 158.4 223.5 158 223.5 156.9C223.5 155.8 224.2 154.5 225.2 154Z" fill="black"/>
<path d="M218.7 164.3L231.7 156.8C232.5 156.4 233.1 156.7 233.1 157.5C233.1 158.3 232.5 159.4 231.7 159.8L218.7 167.3C217.9 167.7 217.3 167.4 217.3 166.6C217.2 165.8 217.9 164.7 218.7 164.3Z" fill="black"/>
<path d="M258.7 273.7C258.7 275.1 257.7 275.9 256.5 276.6L193.6 313C192.4 313.7 191.4 313.1 191.4 311.8V189.4C191.4 188 192.4 186.4 193.6 185.7L256.5 149.4C257.7 148.7 258.7 149.3 258.7 150.6V273.7Z" fill="#5D1EE7" stroke="white" stroke-width="0.578" stroke-miterlimit="10"/>
<path d="M262.3 131.7C262.1 130.4 261.1 129.9 259.8 130.6L190.6 170.6C189.9 171 189.3 171.7 188.8 172.5L180.9 167.9C181.4 167.1 182 166.4 182.7 166L251.9 126C253.3 125.2 255.5 125.2 256.9 126L259.8 127.7C261.1 128.5 262.1 130.2 262.3 131.7Z" fill="#375A64"/>
<path d="M210.2 206C210.9 205.6 211.6 205.4 212.2 205.4C212.8 205.4 213.3 205.6 213.7 205.9C214.1 206.2 214.5 206.8 214.7 207.4C214.9 208.1 215.1 208.9 215.1 209.9C215.1 210.2 215.1 210.5 215.1 210.8C215.1 211.1 215.1 211.4 215.1 211.6C215.1 211.9 215.1 212.1 215.1 212.4C215.1 212.7 215.1 213 215.1 213.3C215.1 214.3 214.9 215.3 214.7 216.3C214.5 217.3 214.1 218.2 213.7 219C213.3 219.8 212.8 220.6 212.2 221.3C211.6 222 211 222.5 210.2 222.9L206 225.3C205.9 225.4 205.8 225.4 205.7 225.3C205.6 225.2 205.6 225.1 205.6 224.9V209.3C205.6 209.1 205.6 208.9 205.7 208.8C205.8 208.6 205.9 208.5 206 208.4L210.2 206ZM212.2 211.4C212.1 209.6 211.4 209.1 210.1 209.9L208.5 210.8V220L210.2 219C211.5 218.2 212.2 216.9 212.3 215C212.3 214.7 212.3 214.3 212.3 214C212.3 213.7 212.3 213.4 212.3 213.1C212.3 212.8 212.3 212.5 212.3 212.2C212.2 212.1 212.2 211.8 212.2 211.4Z" fill="white"/>
<path d="M222.4 198.9C222.6 198.8 222.8 198.8 222.9 198.9C223 199 223.1 199.1 223.1 199.3L226.5 212.5C226.5 212.6 226.6 212.7 226.6 212.8C226.6 212.9 226.6 213.1 226.5 213.2C226.4 213.3 226.4 213.4 226.3 213.5L224.3 214.6C224.1 214.7 223.9 214.7 223.9 214.7C223.8 214.6 223.8 214.5 223.7 214.4L223.3 212.7L219.1 215.1L218.7 217.4C218.7 217.5 218.6 217.7 218.5 217.9C218.4 218.1 218.3 218.2 218.1 218.4L216.1 219.5C216 219.6 215.9 219.5 215.9 219.5C215.8 219.4 215.8 219.3 215.8 219.2C215.8 219.1 215.8 219 215.9 218.8L219.3 201.6C219.3 201.4 219.4 201.2 219.5 200.9C219.6 200.7 219.8 200.5 220 200.4L222.4 198.9ZM219.9 210.9L222.4 209.4L221.1 204.3L219.9 210.9Z" fill="white"/>
<path d="M234.9 191.7C235 191.6 235.1 191.6 235.2 191.7C235.3 191.8 235.3 191.9 235.3 192.1V194.7C235.3 194.9 235.3 195.1 235.2 195.2C235.1 195.4 235 195.5 234.9 195.6L232.1 197.2V209.6C232.1 209.8 232.1 210 232 210.1C231.9 210.3 231.8 210.4 231.7 210.5L229.6 211.7C229.5 211.8 229.4 211.8 229.3 211.7C229.2 211.6 229.2 211.5 229.2 211.3V198.9L226.4 200.5C226.3 200.6 226.2 200.6 226.1 200.5C226 200.4 226 200.3 226 200.1V197.5C226 197.3 226 197.1 226.1 197C226.2 196.8 226.3 196.7 226.4 196.6L234.9 191.7Z" fill="white"/>
<path d="M241.4 187.9C241.6 187.8 241.8 187.8 241.9 187.9C242 188 242.1 188.1 242.1 188.3L245.5 201.5C245.5 201.6 245.6 201.7 245.6 201.8C245.6 201.9 245.6 202.1 245.5 202.2C245.4 202.3 245.4 202.4 245.3 202.5L243.3 203.6C243.1 203.7 242.9 203.7 242.9 203.7C242.8 203.6 242.8 203.5 242.7 203.4L242.3 201.7L238.1 204.1L237.7 206.4C237.7 206.5 237.6 206.7 237.5 206.9C237.4 207.1 237.3 207.2 237.1 207.4L235.1 208.5C235 208.6 234.9 208.5 234.9 208.5C234.8 208.4 234.8 208.3 234.8 208.2C234.8 208.1 234.8 208 234.9 207.8L238.3 190.6C238.3 190.4 238.4 190.2 238.5 189.9C238.6 189.7 238.8 189.5 239 189.4L241.4 187.9ZM238.9 200L241.4 198.5L240.1 193.4L238.9 200Z" fill="white"/>
<path d="M195.5 243.3L257.2 207.6V216.2L195.5 251.9V243.3Z" fill="#375A64"/>
<path d="M197.9 244.7V247.6L254.8 214.8V211.9L197.9 244.7Z" fill="#1A2E35"/>
<path d="M195.5 243.3L193 241.9L254.8 206.2L257.2 207.6L195.5 243.3Z" fill="#2B454E"/>
<path d="M193 241.9L195.5 243.3V251.9L193 250.4V241.9Z" fill="#1A2E35"/>
<path d="M267.1 268.9L255.1 275.8L247.7 280C247.5 280.1 247.2 280.3 247 280.4C244.3 282.1 242.3 285.1 242.3 288.8V323.2C242.3 326.5 240.7 329.3 238.4 331.1C236.7 332.4 234.6 333.1 232.4 333.1C230.8 333.1 229.1 332.7 227.5 331.8C218.3 326.5 212.7 316.7 212.7 306.1V270.4C212.7 265.1 211.3 260 208.7 255.6C206.1 251.2 202.4 247.4 197.8 244.7L252.2 213.3C256.8 216 260.5 219.7 263.1 224.2C265.7 228.6 267.1 233.7 267.1 239V254.6C267.1 259 267.1 268.9 267.1 268.9Z" fill="#F5F5F5"/>
<path d="M286.9 366.1C277.7 360.8 272.1 351 272.1 340.4V306C272.1 302 271.3 298.1 269.8 294.5C269.3 293.4 268.8 292.3 268.2 291.2C265.6 286.8 261.9 283 257.3 280.4C250.7 276.6 242.5 281.4 242.5 289V323.4V316.2V323.3C242.5 330.9 234.3 335.7 227.7 331.9C218.5 326.6 212.9 316.8 212.9 306.2V270.5C212.9 265.2 211.5 260.1 208.9 255.7C206.3 251.3 202.6 247.5 198 244.8V246.2C206.4 251.3 211.6 260.6 211.6 270.5V306.2C211.6 317.2 217.5 327.4 227 332.9C230.5 334.9 234.6 334.9 238.1 332.9C238.3 332.8 238.5 332.7 238.7 332.5C241.8 330.4 243.6 327 243.6 323.3V288.9C243.6 285.8 245.2 283 247.9 281.4C250.6 279.8 253.9 279.8 256.6 281.4C262.1 284.6 266.3 289.4 268.6 295.1C270 298.5 270.8 302.2 270.8 306V314V340.5C270.8 351.5 276.7 361.7 286.2 367.2L319 386V384.6L286.9 366.1Z" fill="#375A64"/>
<path d="M373.4 353.2L319 384.6L286.9 366C277.7 360.7 272.1 350.9 272.1 340.3V305.9C272.1 301.9 271.3 298 269.8 294.4C269.3 293.3 268.8 292.2 268.2 291.1C265.6 286.7 261.9 282.9 257.3 280.3C254.2 278.5 250.7 278.6 247.8 280.1L255.2 275.9L270 267.3L301.7 249H301.8C304.7 247.3 308.4 247.1 311.7 249C316.3 251.6 320 255.4 322.6 259.9C325.2 264.3 326.6 269.4 326.6 274.7V309.1C326.6 319.7 332.3 329.5 341.4 334.8L373.4 353.2Z" fill="#FAFAFA"/>
<path d="M270.9 305.9C270.9 302.1 270.1 298.4 268.7 295C266.3 289.3 262.1 284.4 256.7 281.3C254 279.7 250.7 279.7 248 281.3C245.3 282.9 243.7 285.7 243.7 288.8V323.2C243.7 327 241.9 330.3 238.8 332.4C238.6 332.5 238.4 332.7 238.2 332.8L271 313.9L270.9 305.9Z" fill="#E1E1E1"/>
<path opacity="0.15" d="M270.9 305.9C270.9 302.1 270.1 298.4 268.7 295C266.3 289.3 262.1 284.4 256.7 281.3C254 279.7 250.7 279.7 248 281.3C245.3 282.9 243.7 285.7 243.7 288.8V323.2C243.7 327 241.9 330.3 238.8 332.4C238.6 332.5 238.4 332.7 238.2 332.8L271 313.9L270.9 305.9Z" fill="black"/>
<mask id="mask0_521_53521" style="mask-type:luminance" maskUnits="userSpaceOnUse" x="197" y="213" width="71" height="121">
<path d="M267.1 268.9L255.1 275.8L247.7 280C247.5 280.1 247.2 280.3 247 280.4C244.3 282.1 242.3 285.1 242.3 288.8V323.2C242.3 326.5 240.7 329.3 238.4 331.1C236.7 332.4 234.6 333.1 232.4 333.1C230.8 333.1 229.1 332.7 227.5 331.8C218.3 326.5 212.7 316.7 212.7 306.1V270.4C212.7 265.1 211.3 260 208.7 255.6C206.1 251.2 202.4 247.4 197.8 244.7L252.2 213.3C256.8 216 260.5 219.7 263.1 224.2C265.7 228.6 267.1 233.7 267.1 239V254.6C267.1 259 267.1 268.9 267.1 268.9Z" fill="white"/>
</mask>
<g mask="url(#mask0_521_53521)">
<path d="M207.6 244.9C208.7 245.9 210.8 246.1 212.2 245.2L251 222.8C252.5 222 252.8 220.4 251.7 219.4C250.6 218.4 248.4 218.4 246.9 219.2L208.1 241.6C206.6 242.5 206.4 243.9 207.6 244.9Z" fill="#5D1EE7"/>
<path opacity="0.4" d="M238.9 236.4C238.8 236.4 238.6 236.3 238.5 236.2C238.4 236 238.5 235.7 238.7 235.6L256.8 225.1C257 225 257.3 225.1 257.4 225.3C257.5 225.5 257.4 225.8 257.2 225.9L239.1 236.4C239 236.4 238.9 236.4 238.9 236.4Z" fill="black"/>
<path opacity="0.4" d="M240.3 238.8C240.2 238.8 240 238.7 239.9 238.6C239.8 238.4 239.9 238.1 240.1 238L258.2 227.5C258.4 227.4 258.7 227.5 258.8 227.7C258.9 227.9 258.8 228.2 258.6 228.3L240.5 238.8C240.4 238.7 240.3 238.8 240.3 238.8Z" fill="black"/>
<path opacity="0.4" d="M241.4 241.2C241.3 241.2 241.1 241.1 241 241C240.9 240.8 241 240.5 241.2 240.4L259.3 229.9C259.5 229.8 259.8 229.9 259.9 230.1C260 230.3 259.9 230.6 259.7 230.7L241.6 241.2C241.6 241.2 241.5 241.2 241.4 241.2Z" fill="black"/>
<path opacity="0.4" d="M242.4 243.7C242.3 243.7 242.1 243.6 242 243.5C241.9 243.3 242 243 242.2 242.9L260.3 232.4C260.5 232.3 260.8 232.4 260.9 232.6C261 232.8 260.9 233.1 260.7 233.2L242.6 243.7C242.5 243.7 242.5 243.7 242.4 243.7Z" fill="black"/>
<path opacity="0.4" d="M243.1 246.2C243 246.2 242.8 246.1 242.7 246C242.6 245.8 242.7 245.5 242.9 245.4L261 234.9C261.2 234.8 261.5 234.9 261.6 235.1C261.7 235.3 261.6 235.6 261.4 235.7L243.3 246.2C243.2 246.2 243.2 246.2 243.1 246.2Z" fill="black"/>
<path opacity="0.4" d="M243.5 248.9C243.4 248.9 243.2 248.8 243.1 248.7C243 248.5 243.1 248.2 243.3 248.1L261.4 237.6C261.6 237.5 261.9 237.6 262 237.8C262.1 238 262 238.3 261.8 238.4L243.7 248.9C243.7 248.8 243.6 248.9 243.5 248.9Z" fill="black"/>
<path opacity="0.4" d="M243.8 251.7C243.7 251.7 243.5 251.6 243.4 251.5C243.3 251.3 243.4 251 243.6 250.9L261.7 240.4C261.9 240.3 262.2 240.4 262.3 240.6C262.4 240.8 262.3 241.1 262.1 241.2L244 251.7C243.9 251.7 243.9 251.7 243.8 251.7Z" fill="black"/>
<path opacity="0.4" d="M217.9 272C217.8 272 217.7 271.9 217.6 271.8C217.5 271.7 217.6 271.5 217.7 271.4L261.7 246C261.8 245.9 262 246 262.1 246.1C262.2 246.2 262.1 246.4 262 246.5L218 271.9C218 272 218 272 217.9 272Z" fill="black"/>
<path opacity="0.4" d="M217.9 274.7C217.8 274.7 217.7 274.6 217.6 274.5C217.5 274.4 217.6 274.2 217.7 274.1L261.7 248.7C261.8 248.6 262 248.7 262.1 248.8C262.2 248.9 262.1 249.1 262 249.2L218 274.6C218 274.7 218 274.7 217.9 274.7Z" fill="black"/>
<path opacity="0.4" d="M217.9 277.4C217.8 277.4 217.7 277.3 217.6 277.2C217.5 277.1 217.6 276.9 217.7 276.8L261.7 251.4C261.8 251.3 262 251.4 262.1 251.5C262.2 251.6 262.1 251.8 262 251.9L218 277.3C218 277.4 218 277.4 217.9 277.4Z" fill="black"/>
<path opacity="0.4" d="M217.9 280.1C217.8 280.1 217.7 280 217.6 279.9C217.5 279.8 217.6 279.6 217.7 279.5L261.7 254.1C261.8 254 262 254.1 262.1 254.2C262.2 254.3 262.1 254.5 262 254.6L218 280C218 280.1 218 280.1 217.9 280.1Z" fill="black"/>
<path opacity="0.4" d="M217.9 268C217.8 268 217.7 267.9 217.6 267.8C217.5 267.7 217.6 267.5 217.7 267.4L241 253.9C241.1 253.8 241.3 253.9 241.4 254C241.5 254.1 241.4 254.3 241.3 254.4L218.1 268C218 268 218 268 217.9 268Z" fill="#5D1EE7"/>
<path d="M217.3 252.4C218.2 254.2 219 256.1 219.5 257.9C220 259.6 220.3 261.6 220.5 263.9C220.5 264.3 220.9 264.5 221.2 264.3L222.5 263.6C222.9 263.4 223.1 262.9 223.1 262.5C222.9 260.4 222.6 258.3 222 256.3C221.4 254.3 220.7 252.5 219.9 251C219.7 250.6 219.2 250.5 218.9 250.7L217.6 251.4C217.2 251.6 217.1 252.1 217.3 252.4Z" fill="#5D1EE7"/>
<path d="M221.1 247.1C222.3 248.9 223.3 251.1 224.2 253.7C224.9 255.8 225.4 258.2 225.6 261C225.6 261.4 225.9 261.6 226.3 261.4L227.6 260.7C228 260.5 228.2 260 228.2 259.6C228 257.1 227.5 254.7 226.8 252.3C226 249.9 224.9 247.7 223.7 245.7C223.5 245.3 223 245.2 222.6 245.4L221.3 246.1C221 246.3 220.9 246.7 221.1 247.1Z" fill="#5D1EE7"/>
<path d="M231.4 249.6L230.1 250.3C229.7 250.5 229.6 251 229.7 251.4C230.3 253.3 230.7 255.5 230.9 258C230.9 258.4 231.2 258.6 231.6 258.4L232.9 257.7C233.3 257.5 233.5 257 233.5 256.6C233.3 254.4 232.9 252.2 232.3 250.1C232.1 249.5 231.7 249.4 231.4 249.6Z" fill="#5D1EE7"/>
<path d="M236.5 244.4C236.3 244 235.9 243.9 235.5 244.1L234.2 244.8C233.8 245 233.7 245.5 233.8 245.9C234 246.5 234.3 247.1 234.5 247.7C235.2 249.8 235.7 252.2 235.9 255C235.9 255.4 236.2 255.6 236.6 255.4L237.9 254.7C238.3 254.5 238.5 254 238.5 253.6C238.3 251.1 237.8 248.7 237.1 246.3C237 245.6 236.8 245 236.5 244.4Z" fill="#5D1EE7"/>
<path opacity="0.4" d="M218.8 262.8C218.7 262.7 218.6 262.7 218.5 262.7L218 263C217.9 262.3 217.7 261.5 217.6 260.8L218.3 260.4C218.4 260.3 218.4 260.2 218.4 260.1C218.3 260 218.2 260 218.1 260L217.5 260.4C217.3 259.7 217.1 258.9 216.9 258.2L217.6 257.8C217.7 257.7 217.7 257.6 217.7 257.5C217.6 257.4 217.5 257.4 217.4 257.4L216.8 257.8C216.6 257.1 216.3 256.4 216 255.8C216 255.8 216 255.8 216 255.7L216.7 255.3C216.8 255.2 216.8 255.1 216.8 255C216.7 254.9 216.6 254.9 216.5 254.9L215.8 255.3C215.5 254.6 215.2 253.9 214.8 253.3L215.5 252.9C215.6 252.8 215.6 252.7 215.6 252.6C215.5 252.5 215.4 252.5 215.3 252.5L214.6 252.9C214.2 252.3 213.8 251.6 213.4 251L214.2 250.6C214.3 250.5 214.3 250.4 214.3 250.3C214.2 250.2 214.1 250.2 214 250.2L213.2 250.7C212.7 250 212.3 249.4 211.7 248.7C211.6 248.6 211.5 248.6 211.4 248.7C211.3 248.8 211.3 248.9 211.4 249C211.9 249.6 212.4 250.3 212.8 250.9L212.1 251.3C212 251.4 212 251.5 212 251.6C212 251.7 212.1 251.7 212.2 251.7H212.3L213.1 251.3C213.5 251.9 213.9 252.6 214.3 253.2L213.4 253.7C213.3 253.8 213.3 253.9 213.3 254C213.3 254.1 213.4 254.1 213.5 254.1H213.6L214.5 253.6C214.9 254.3 215.2 254.9 215.5 255.6L214.6 256.1C214.5 256.2 214.5 256.3 214.5 256.4C214.5 256.5 214.6 256.5 214.7 256.5H214.8L215.7 256C216 256.7 216.3 257.4 216.5 258.1L215.6 258.6C215.5 258.7 215.5 258.8 215.5 258.9C215.5 259 215.6 259 215.7 259H215.8L216.6 258.5C216.8 259.2 217 259.9 217.2 260.7L216.3 261.2C216.2 261.3 216.2 261.4 216.2 261.5C216.2 261.6 216.3 261.6 216.4 261.6H216.5L217.3 261.1C217.5 261.8 217.6 262.6 217.7 263.3L216.7 263.9C216.6 264 216.6 264.1 216.6 264.2C216.6 264.3 216.7 264.3 216.8 264.3H216.9L217.7 263.8C217.8 264.7 217.9 265.6 218 266.6C218 266.7 218.1 266.8 218.2 266.8C218.3 266.8 218.4 266.7 218.4 266.6C218.3 265.6 218.2 264.6 218.1 263.6L218.8 263.2C218.9 263.1 218.9 262.9 218.8 262.8Z" fill="#5D1EE7"/>
<g opacity="0.15">
<path d="M221 305.1C220.8 303.5 220.8 301.8 220.8 300.2C221 299.6 223.6 290.6 228.4 287.8C228.7 287.6 229.1 287.5 229.4 287.4C229.5 287.4 229.7 287.4 229.8 287.4C231.1 287.4 231.7 289.2 232.2 290.9C232.4 291.6 232.7 292.4 233 293C233.3 293.7 233.9 294.6 235 294.6C235.4 294.6 235.8 294.5 236.3 294.2C238.6 292.9 239.3 289.3 240 285.5C240.3 283.8 240.6 282 241.1 280.5C241.8 278.3 242.7 276.9 244 276.2C244.4 276 244.8 275.8 245.1 275.8C246.4 275.8 247 278.2 247.4 280.5C247.7 281.8 247.9 283.1 248.4 284.1C248.9 285.2 249.5 285.8 250.4 285.8C250.8 285.8 251.3 285.7 251.8 285.4C254.6 283.8 255.5 281 256.3 278.3C257 276 257.7 273.8 259.6 272.8C260.1 272.5 260.6 272.4 261 272.4C261.2 272.4 261.4 272.4 261.6 272.5C261.7 273.2 261.7 273.8 261.7 273.8V279.3C261.8 280.3 261.8 281.2 261.9 281.9L221 305.1Z" fill="#5D1EE7"/>
<path d="M262.2 281.6C262.1 280.8 262 279.9 262 278.9V273.4C262 273.4 262 272.8 261.9 271.9C261.6 271.8 261.3 271.7 261 271.7C260.5 271.7 260 271.8 259.4 272.2C255.2 274.6 256.8 281.9 251.6 284.9C251.1 285.2 250.7 285.3 250.4 285.3C249.6 285.3 249.1 284.7 248.7 283.8C247.5 281 247.5 275.4 245.1 275.4C244.7 275.4 244.3 275.5 243.9 275.8C242.4 276.7 241.5 278.3 240.9 280.3C239.3 285.2 239.4 292 236.2 293.9C235.8 294.2 235.4 294.3 235 294.3C234.2 294.3 233.7 293.7 233.3 292.9C232.3 290.8 231.9 287.2 229.9 287.2C229.8 287.2 229.6 287.2 229.4 287.3C229.1 287.4 228.7 287.5 228.4 287.7C223.3 290.7 220.6 300.4 220.6 300.4C220.5 302.3 220.6 304.1 220.9 305.8L221.5 305.5C221.5 305.3 221.4 305.2 221.4 304.9C221.3 303.5 221.2 302 221.3 300.5C221.5 299.6 224.1 291 228.8 288.3C229.1 288.1 229.4 288 229.7 287.9C229.8 287.9 229.9 287.9 230 287.9C231.1 287.9 231.6 289.6 232.1 291.2C232.3 291.9 232.6 292.7 232.9 293.3C233.1 293.7 233.7 295.1 235.1 295.1C235.6 295.1 236 295 236.6 294.7C239 293.3 239.7 289.7 240.4 285.8C240.7 284.1 241 282.3 241.5 280.8C242.2 278.7 243 277.3 244.2 276.7C244.6 276.5 244.9 276.4 245.1 276.4C246.2 276.4 246.7 278.8 247.2 280.9C247.5 282.2 247.8 283.5 248.2 284.5C248.7 285.7 249.5 286.3 250.5 286.3C251 286.3 251.5 286.1 252 285.8C255 284.1 255.9 281.1 256.7 278.5C257.4 276.3 258 274.2 259.8 273.1C260.3 272.8 260.7 272.7 261 272.7C261.1 272.7 261.2 272.7 261.3 272.7C261.4 273.3 261.4 273.8 261.4 273.8V279.3C261.4 280.2 261.5 281 261.6 281.7C261.6 282 261.7 282.2 261.7 282.3L262.2 281.6Z" fill="#5D1EE7"/>
</g>
<g opacity="0.4">
<path d="M220.5 297.4V300.2C220.4 302.1 220.5 303.9 220.7 305.6L262.1 281.7C262 280.9 261.9 280 261.9 279V273.5C261.9 273.5 261.9 265.3 256.7 268.3C251.3 271.4 252.8 281.4 248.9 283.7C245 286 246.3 277 241.1 280C235.9 283 238.5 289.6 233.3 292.6C228.1 295.6 230.7 280.5 225.5 283.5C220.5 286.5 220.5 293.9 220.5 297.4Z" fill="#5D1EE7"/>
</g>
<path opacity="0.4" d="M218.6 309.8C218.5 309.8 218.5 309.8 218.4 309.7C218.3 309.6 218.4 309.5 218.5 309.4L262.6 284.2C262.7 284.1 262.8 284.2 262.9 284.3C263 284.4 262.9 284.5 262.8 284.6L218.7 309.8C218.7 309.8 218.7 309.8 218.6 309.8Z" fill="#5D1EE7"/>
<path d="M225.7 285C225.6 285 225.5 284.9 225.5 284.8V284.4C225.5 284.3 225.6 284.2 225.7 284.2C225.8 284.2 225.9 284.3 225.9 284.4V284.8C225.9 284.9 225.8 285 225.7 285Z" fill="#5D1EE7"/>
<path d="M225.8 301.5C225.7 301.5 225.6 301.4 225.6 301.3C225.6 301 225.6 300.7 225.5 300.5C225.5 300.4 225.6 300.3 225.7 300.3C225.8 300.3 225.9 300.4 225.9 300.5C225.9 300.8 225.9 301 226 301.3C226.1 301.4 226 301.5 225.8 301.5ZM225.7 299.9C225.6 299.9 225.5 299.8 225.5 299.7C225.5 299.5 225.5 299.2 225.5 298.9C225.5 298.8 225.6 298.7 225.7 298.7C225.8 298.7 225.9 298.8 225.9 298.9C225.9 299.2 225.9 299.5 225.9 299.7C225.9 299.8 225.8 299.9 225.7 299.9ZM225.7 298.2C225.6 298.2 225.5 298.1 225.5 298V297.2C225.5 297.1 225.6 297 225.7 297C225.8 297 225.9 297.1 225.9 297.2V298C225.9 298.1 225.8 298.2 225.7 298.2ZM225.7 296.6C225.6 296.6 225.5 296.5 225.5 296.4V295.6C225.5 295.5 225.6 295.4 225.7 295.4C225.8 295.4 225.9 295.5 225.9 295.6V296.4C225.9 296.5 225.8 296.6 225.7 296.6ZM225.7 294.9C225.6 294.9 225.5 294.8 225.5 294.7V293.9C225.5 293.8 225.6 293.7 225.7 293.7C225.8 293.7 225.9 293.8 225.9 293.9V294.7C225.9 294.8 225.8 294.9 225.7 294.9ZM225.7 293.2C225.6 293.2 225.5 293.1 225.5 293V292.2C225.5 292.1 225.6 292 225.7 292C225.8 292 225.9 292.1 225.9 292.2V293C225.9 293.1 225.8 293.2 225.7 293.2ZM225.7 291.6C225.6 291.6 225.5 291.5 225.5 291.4V290.6C225.5 290.5 225.6 290.4 225.7 290.4C225.8 290.4 225.9 290.5 225.9 290.6V291.4C225.9 291.5 225.8 291.6 225.7 291.6ZM225.7 289.9C225.6 289.9 225.5 289.8 225.5 289.7V288.9C225.5 288.8 225.6 288.7 225.7 288.7C225.8 288.7 225.9 288.8 225.9 288.9V289.7C225.9 289.8 225.8 289.9 225.7 289.9ZM225.7 288.3C225.6 288.3 225.5 288.2 225.5 288.1V287.3C225.5 287.2 225.6 287.1 225.7 287.1C225.8 287.1 225.9 287.2 225.9 287.3V288.1C225.9 288.2 225.8 288.3 225.7 288.3ZM225.7 286.6C225.6 286.6 225.5 286.5 225.5 286.4V285.6C225.5 285.5 225.6 285.4 225.7 285.4C225.8 285.4 225.9 285.5 225.9 285.6V286.4C225.9 286.5 225.8 286.6 225.7 286.6Z" fill="#5D1EE7"/>
<path d="M241.2 281.4C241.1 281.4 241 281.3 241 281.2V280.8C241 280.7 241.1 280.6 241.2 280.6C241.3 280.6 241.4 280.7 241.4 280.8V281.2C241.5 281.3 241.4 281.4 241.2 281.4Z" fill="#5D1EE7"/>
<path d="M241.4 292.7C241.3 292.7 241.2 292.6 241.2 292.5C241.2 292.2 241.2 292 241.1 291.7C241.1 291.6 241.2 291.5 241.3 291.5C241.4 291.5 241.5 291.6 241.5 291.7C241.5 292 241.5 292.2 241.6 292.5C241.6 292.6 241.5 292.7 241.4 292.7ZM241.3 291.1C241.2 291.1 241.1 291 241.1 290.9V290.1C241.1 290 241.2 289.9 241.3 289.9C241.4 289.9 241.5 290 241.5 290.1V290.9C241.5 291 241.4 291.1 241.3 291.1ZM241.2 289.4C241.1 289.4 241 289.3 241 289.2V288.4C241 288.3 241.1 288.2 241.2 288.2C241.3 288.2 241.4 288.3 241.4 288.4V289.2C241.5 289.4 241.4 289.4 241.2 289.4ZM241.2 287.8C241.1 287.8 241 287.7 241 287.6V286.8C241 286.7 241.1 286.6 241.2 286.6C241.3 286.6 241.4 286.7 241.4 286.8V287.6C241.5 287.7 241.4 287.8 241.2 287.8ZM241.2 286.2C241.1 286.2 241 286.1 241 286V285.2C241 285.1 241.1 285 241.2 285C241.3 285 241.4 285.1 241.4 285.2V286C241.5 286.1 241.4 286.2 241.2 286.2ZM241.2 284.6C241.1 284.6 241 284.5 241 284.4V283.6C241 283.5 241.1 283.4 241.2 283.4C241.3 283.4 241.4 283.5 241.4 283.6V284.4C241.5 284.5 241.4 284.6 241.2 284.6ZM241.2 283C241.1 283 241 282.9 241 282.8V282C241 281.9 241.1 281.8 241.2 281.8C241.3 281.8 241.4 281.9 241.4 282V282.8C241.5 282.9 241.4 283 241.2 283Z" fill="#5D1EE7"/>
<path opacity="0.4" d="M225.7 282.6C226.1 282.4 226.4 282.5 226.4 283C226.4 283.4 226.1 284 225.7 284.2C225.3 284.4 225 284.3 225 283.8C225 283.4 225.3 282.9 225.7 282.6Z" fill="#5D1EE7"/>
<path opacity="0.4" d="M241.2 279.1C241.6 278.9 241.9 279 241.9 279.5C241.9 280 241.6 280.5 241.2 280.7C240.8 280.9 240.5 280.8 240.5 280.3C240.5 279.8 240.8 279.3 241.2 279.1Z" fill="#5D1EE7"/>
<path opacity="0.4" d="M218.9 287.7C219 287.6 219 287.5 219 287.4C218.9 287.3 218.8 287.3 218.7 287.3L218.1 287.6V285.4L218.9 285C219 284.9 219 284.8 219 284.7C218.9 284.6 218.8 284.6 218.7 284.6L218.1 284.9V282.6C218.1 282.5 218 282.4 217.9 282.4C217.8 282.4 217.7 282.5 217.7 282.6V285.2L216.9 285.7C216.8 285.8 216.8 285.9 216.8 286C216.8 286.1 216.9 286.1 217 286.1H217.1L217.7 285.8V288L216.9 288.5C216.8 288.6 216.8 288.7 216.8 288.8C216.8 288.9 216.9 288.9 217 288.9H217.1L217.7 288.6V290.8L216.9 291.3C216.8 291.4 216.8 291.5 216.8 291.6C216.8 291.7 216.9 291.7 217 291.7H217.1L217.7 291.4V293.6L216.9 294.1C216.8 294.2 216.8 294.3 216.8 294.4C216.8 294.5 216.9 294.5 217 294.5H217.1L217.7 294.2V296.4L216.9 296.9C216.8 297 216.8 297.1 216.8 297.2C216.8 297.3 216.9 297.3 217 297.3H217.1L217.7 297V299.2L216.9 299.7C216.8 299.8 216.8 299.9 216.8 300C216.8 300.1 216.9 300.1 217 300.1H217.1L217.7 299.8V302L216.9 302.5C216.8 302.6 216.8 302.7 216.8 302.8C216.8 302.9 216.9 302.9 217 302.9H217.1L217.7 302.6C217.7 303.3 217.7 304.1 217.7 304.8L216.9 305.3C216.8 305.4 216.8 305.5 216.8 305.6C216.8 305.7 216.9 305.7 217 305.7H217.1L217.7 305.3C217.7 306.1 217.8 306.9 217.9 307.7C217.9 307.8 218 307.9 218.1 307.9C218.2 307.9 218.3 307.8 218.3 307.7C218.2 306.8 218.1 306 218.1 305.1L218.8 304.7C218.9 304.6 218.9 304.5 218.9 304.4C218.8 304.3 218.7 304.3 218.6 304.3L218.1 304.6C218.1 303.9 218.1 303.1 218.1 302.4L218.9 302C219 301.9 219 301.8 219 301.7C218.9 301.6 218.8 301.6 218.7 301.6L218.1 301.9V299L218.9 298.6C219 298.5 219 298.4 219 298.3C218.9 298.2 218.8 298.2 218.7 298.2L218.1 298.5V296.3L218.9 295.9C219 295.8 219 295.7 219 295.6C218.9 295.5 218.8 295.5 218.7 295.5L218.1 295.8V293.6L218.9 293.2C219 293.1 219 293 219 292.9C218.9 292.8 218.8 292.8 218.7 292.8L218.1 293.1V290.9L218.9 290.5C219 290.4 219 290.3 219 290.2C218.9 290.1 218.8 290.1 218.7 290.1L218.1 290.4V288.2L218.9 287.7Z" fill="#5D1EE7"/>
<path opacity="0.4" d="M219.4 312.6C219.3 312.6 219.2 312.5 219.1 312.4C219 312.3 219.1 312.1 219.2 312L265.8 285.1C265.9 285 266.1 285.1 266.2 285.2C266.3 285.3 266.2 285.5 266.1 285.6L219.5 312.5C219.5 312.6 219.5 312.6 219.4 312.6Z" fill="black"/>
<path opacity="0.4" d="M220.4 315.2C220.3 315.2 220.2 315.1 220.1 315C220 314.9 220.1 314.7 220.2 314.6L266.8 287.7C266.9 287.6 267.1 287.7 267.2 287.8C267.3 287.9 267.2 288.1 267.1 288.2L220.5 315.1C220.5 315.2 220.4 315.2 220.4 315.2Z" fill="black"/>
</g>
</svg>
