<svg width="619" height="486" viewBox="0 0 619 486" fill="none" xmlns="http://www.w3.org/2000/svg">
<g clip-path="url(#clip0_296_55185)">
<path d="M284.495 398.104C265.904 398.104 247.803 396.412 230.34 393.032C190.159 385.254 156.954 368.962 134.316 345.916C112.22 323.423 101.287 295.781 102.697 265.976C102.703 265.876 102.747 265.782 102.821 265.715C102.896 265.647 102.993 265.612 103.093 265.615C103.302 265.625 103.464 265.803 103.454 266.012C102.054 295.6 112.912 323.047 134.856 345.386C157.387 368.322 190.454 384.54 230.484 392.289C262.215 398.431 296.076 398.981 331.125 393.925C331.175 393.918 331.225 393.92 331.273 393.932C331.321 393.945 331.367 393.966 331.406 393.996C331.446 394.026 331.48 394.063 331.505 394.106C331.531 394.149 331.547 394.196 331.555 394.245C331.562 394.295 331.559 394.345 331.547 394.393C331.534 394.441 331.513 394.486 331.483 394.526C331.453 394.566 331.416 394.6 331.373 394.625C331.33 394.651 331.283 394.667 331.234 394.674C315.385 396.961 299.774 398.104 284.495 398.104V398.104ZM446.461 356.499C446.377 356.499 446.296 356.471 446.229 356.42C446.163 356.368 446.115 356.296 446.094 356.214C446.073 356.133 446.08 356.047 446.114 355.97C446.147 355.892 446.205 355.829 446.279 355.788C483.934 335.133 514.045 308.483 533.357 278.721C543.868 262.52 550.861 245.923 554.14 229.391C554.159 229.293 554.217 229.206 554.301 229.15C554.384 229.094 554.486 229.074 554.585 229.094C554.683 229.113 554.77 229.171 554.826 229.254C554.882 229.337 554.902 229.439 554.883 229.538C551.585 246.165 544.557 262.851 533.992 279.133C514.613 309 484.408 335.736 446.644 356.452C446.588 356.483 446.526 356.499 446.462 356.499H446.461ZM125.949 200.383C125.881 200.383 125.814 200.364 125.756 200.33C125.697 200.295 125.649 200.245 125.617 200.185C125.584 200.125 125.568 200.058 125.571 199.99C125.574 199.922 125.595 199.855 125.632 199.798C139.076 179.079 157.514 160.026 180.437 143.17C202.569 126.895 227.929 113.34 255.813 102.882C283.694 92.4259 312.694 85.5925 342.009 82.5727C372.362 79.4453 401.725 80.5646 429.284 85.8988C453.19 90.5265 474.611 98.1354 492.95 108.514C492.993 108.539 493.031 108.571 493.062 108.611C493.092 108.65 493.115 108.695 493.128 108.743C493.141 108.791 493.145 108.841 493.139 108.89C493.133 108.939 493.117 108.987 493.093 109.03C493.068 109.074 493.035 109.112 492.996 109.142C492.957 109.173 492.912 109.196 492.864 109.209C492.816 109.222 492.766 109.226 492.717 109.22C492.667 109.214 492.619 109.198 492.576 109.173C474.308 98.8348 452.965 91.2543 429.139 86.6425C401.655 81.3219 372.366 80.2064 342.087 83.3258C312.837 86.3392 283.9 93.1574 256.079 103.592C228.261 114.024 202.962 127.546 180.886 143.78C158.038 160.582 139.661 179.567 126.267 200.21C126.233 200.263 126.186 200.307 126.13 200.337C126.075 200.367 126.012 200.383 125.949 200.383Z" fill="#0F3336"/>
</g>
<g clip-path="url(#clip1_296_55185)">
<path d="M246.407 156.568C238.848 156.286 231.659 153.332 226.169 148.253C220.68 143.174 217.262 136.313 216.547 128.939C215.833 121.565 217.87 114.177 222.281 108.142C226.693 102.106 233.182 97.831 240.547 96.107L240.517 95.8034C239.413 84.36 242.994 72.9384 250.474 64.0474C257.953 55.1564 268.719 49.523 280.406 48.3846C289.68 47.4595 299 49.4775 306.992 54.1406C311.851 50.6626 317.518 48.4276 323.475 47.6394C329.432 46.8512 335.49 47.5349 341.097 49.628C346.705 51.7212 351.682 55.1574 355.577 59.6234C359.472 64.0893 362.16 69.4431 363.396 75.1967C364.619 74.9045 365.864 74.7153 367.118 74.6312C374.175 73.9627 381.205 76.0592 386.668 80.4616C392.13 84.8639 395.581 91.2134 396.264 98.1196C396.645 101.842 396.187 105.605 394.92 109.141C398.526 110.813 401.469 113.599 403.297 117.072C405.125 120.545 405.738 124.513 405.042 128.369C404.347 132.225 402.38 135.756 399.444 138.421C396.509 141.086 392.765 142.739 388.788 143.126L246.407 156.568Z" fill="#100830"/>
<path d="M314.64 133.263C313.292 133.393 311.948 132.994 310.904 132.153C309.86 131.311 309.202 130.097 309.074 128.777L304.868 85.387C304.74 84.067 305.153 82.7493 306.016 81.7238C306.879 80.6983 308.121 80.049 309.47 79.9188C310.818 79.7885 312.162 80.188 313.206 81.0293C314.25 81.8705 314.908 83.0847 315.036 84.4047L319.242 127.795C319.37 129.115 318.957 130.433 318.094 131.458C317.231 132.484 315.989 133.133 314.64 133.263Z" fill="#100830"/>
<path d="M327.379 101.252C326.711 101.319 326.037 101.255 325.396 101.064C324.755 100.873 324.159 100.56 323.643 100.141L310.396 89.4698L299.448 102.479C298.578 103.478 297.342 104.104 296.008 104.221C294.674 104.338 293.348 103.938 292.316 103.106C291.284 102.275 290.628 101.078 290.49 99.7742C290.352 98.4704 290.743 97.1637 291.578 96.1355L305.778 79.2607C306.641 78.2355 307.883 77.5864 309.231 77.4562C310.579 77.326 311.923 77.7252 312.967 78.5662L330.15 92.4093C330.928 93.0367 331.498 93.8767 331.787 94.8231C332.077 95.7695 332.073 96.7797 331.777 97.7262C331.48 98.6727 330.904 99.5129 330.121 100.141C329.338 100.768 328.384 101.155 327.379 101.252Z" fill="#100830"/>
</g>
<g clip-path="url(#clip2_296_55185)">
<path d="M248.618 156.568C241.058 156.286 233.869 153.332 228.38 148.253C222.891 143.174 219.473 136.313 218.758 128.939C218.043 121.565 220.08 114.177 224.492 108.142C228.904 102.106 235.392 97.831 242.757 96.107L242.728 95.8034C241.624 84.36 245.205 72.9384 252.684 64.0474C260.164 55.1564 270.929 49.523 282.617 48.3846C291.891 47.4595 301.211 49.4775 309.202 54.1406C314.062 50.6626 319.728 48.4276 325.686 47.6394C331.643 46.8512 337.701 47.5349 343.308 49.628C348.915 51.7212 353.893 55.1574 357.788 59.6234C361.683 64.0893 364.371 69.4431 365.607 75.1967C366.829 74.9045 368.075 74.7153 369.329 74.6312C376.386 73.9627 383.416 76.0592 388.878 80.4616C394.341 84.8639 397.792 91.2134 398.475 98.1196C398.856 101.842 398.397 105.605 397.131 109.141C400.737 110.813 403.679 113.599 405.508 117.072C407.336 120.545 407.949 124.513 407.253 128.369C406.557 132.225 404.591 135.756 401.655 138.421C398.719 141.086 394.976 142.739 390.998 143.126L248.618 156.568Z" fill="#5223E2"/>
<path d="M316.851 133.263C315.503 133.393 314.159 132.994 313.115 132.153C312.071 131.311 311.413 130.097 311.285 128.777L307.079 85.387C306.951 84.067 307.364 82.7493 308.227 81.7238C309.09 80.6983 310.332 80.049 311.681 79.9188C313.029 79.7885 314.373 80.188 315.417 81.0293C316.461 81.8705 317.119 83.0847 317.247 84.4047L321.453 127.795C321.581 129.115 321.168 130.433 320.305 131.458C319.442 132.484 318.199 133.133 316.851 133.263Z" fill="#D0DAF9"/>
<path d="M329.589 101.252C328.922 101.319 328.248 101.255 327.606 101.064C326.965 100.873 326.369 100.56 325.854 100.141L312.606 89.4698L301.659 102.479C300.788 103.478 299.553 104.104 298.219 104.221C296.884 104.338 295.559 103.938 294.527 103.106C293.494 102.275 292.839 101.078 292.701 99.7742C292.563 98.4704 292.953 97.1637 293.788 96.1355L307.989 79.2607C308.852 78.2355 310.094 77.5864 311.442 77.4562C312.79 77.326 314.134 77.7252 315.177 78.5662L332.36 92.4093C333.139 93.0367 333.709 93.8767 333.998 94.8231C334.288 95.7695 334.284 96.7797 333.988 97.7262C333.691 98.6727 333.115 99.5129 332.332 100.141C331.549 100.768 330.595 101.155 329.589 101.252Z" fill="#D0DAF9"/>
</g>
<g clip-path="url(#clip3_296_55185)">
<path d="M569.813 106.7L523.905 93.9223C520.223 92.8973 516.401 95.0645 515.369 98.7629L486.088 203.74C485.056 207.438 487.205 211.267 490.888 212.292L536.795 225.07C540.478 226.095 544.3 223.928 545.331 220.23L574.613 115.253C575.645 111.555 573.496 107.725 569.813 106.7Z" fill="#D0DAF9"/>
<path d="M523.905 93.9223L569.813 106.7C573.493 107.725 575.644 111.557 574.613 115.253L562.577 158.402L503.333 141.912L515.369 98.7629C516.4 95.0669 520.225 92.898 523.905 93.9223Z" fill="#5550BC"/>
<path d="M522.785 120.602C525.512 121.361 528.346 119.738 529.116 116.977C529.886 114.217 528.3 111.364 525.574 110.605C522.847 109.846 520.013 111.469 519.243 114.229C518.473 116.99 520.059 119.843 522.785 120.602Z" fill="#D0DAF9"/>
<path d="M555.741 127.599L530.205 140.403L521.14 128.304L505.1 135.58L503.334 141.912L562.577 158.402L566.902 142.898L555.741 127.599Z" fill="#100830"/>
<path d="M562.227 159.658L502.983 143.168C502.652 143.075 502.371 142.855 502.202 142.554C502.033 142.253 501.99 141.897 502.083 141.564L503.85 135.232C503.953 134.86 504.216 134.552 504.568 134.393L520.607 127.117C520.876 126.995 521.178 126.968 521.464 127.041C521.749 127.114 522.001 127.283 522.178 127.519L530.595 138.752L555.163 126.433C555.437 126.296 555.751 126.26 556.049 126.332C556.346 126.404 556.608 126.579 556.789 126.827L567.951 142.126C568.066 142.285 568.145 142.468 568.18 142.662C568.215 142.856 568.205 143.056 568.152 143.246L563.828 158.75C563.735 159.083 563.514 159.366 563.214 159.536C562.914 159.706 562.559 159.75 562.227 159.658L562.227 159.658ZM504.934 141.004L561.677 156.798L565.482 143.159L555.338 129.255L530.783 141.568C530.511 141.704 530.201 141.741 529.905 141.671C529.61 141.602 529.349 141.43 529.167 141.187L520.724 129.92L506.186 136.515L504.934 141.004L504.934 141.004Z" fill="#100830"/>
<path d="M551.498 163.756L510.045 152.218C507.741 151.577 505.351 152.933 504.706 155.246L504.706 155.246C504.061 157.559 505.405 159.954 507.708 160.596L549.161 172.134C551.465 172.775 553.855 171.419 554.5 169.106L554.5 169.106C555.146 166.793 553.801 164.398 551.498 163.756Z" fill="white"/>
<path d="M547.72 177.299L506.267 165.761C503.964 165.12 501.573 166.476 500.928 168.789L500.928 168.789C500.283 171.102 501.627 173.497 503.93 174.139L545.383 185.677C547.687 186.318 550.077 184.962 550.723 182.649L550.723 182.649C551.368 180.336 550.024 177.941 547.72 177.299Z" fill="white"/>
<path d="M508.082 201.99C507.918 201.944 507.764 201.867 507.63 201.761C507.496 201.656 507.384 201.525 507.301 201.376L502.917 193.565C502.833 193.416 502.78 193.252 502.759 193.082C502.739 192.912 502.752 192.74 502.798 192.575C502.844 192.41 502.922 192.256 503.027 192.121C503.133 191.986 503.263 191.873 503.412 191.789L511.917 186.966C512.217 186.796 512.572 186.752 512.903 186.845C513.235 186.937 513.516 187.158 513.685 187.458C513.854 187.759 513.896 188.115 513.803 188.448C513.711 188.781 513.49 189.064 513.19 189.234L505.817 193.415L509.564 200.092C509.733 200.393 509.776 200.749 509.683 201.082C509.59 201.415 509.369 201.698 509.069 201.868C508.92 201.952 508.757 202.007 508.588 202.028C508.418 202.049 508.247 202.036 508.082 201.99ZM527.412 207.37C527.248 207.324 527.094 207.247 526.96 207.141C526.826 207.036 526.714 206.905 526.63 206.756C526.462 206.455 526.419 206.099 526.512 205.766C526.605 205.433 526.826 205.151 527.126 204.98L533.79 201.201L529.644 193.814C529.475 193.513 529.432 193.157 529.525 192.824C529.618 192.491 529.839 192.209 530.139 192.038C530.439 191.868 530.794 191.824 531.126 191.917C531.457 192.009 531.738 192.23 531.907 192.53L536.69 201.052C536.773 201.201 536.827 201.365 536.847 201.534C536.868 201.704 536.855 201.877 536.809 202.041C536.763 202.206 536.685 202.361 536.579 202.495C536.474 202.63 536.343 202.743 536.195 202.827L528.399 207.248C528.25 207.333 528.086 207.387 527.917 207.408C527.748 207.429 527.576 207.416 527.412 207.37ZM513.397 206.585C513.248 206.544 513.105 206.475 512.973 206.377C512.836 206.275 512.721 206.148 512.633 206.001C512.546 205.854 512.488 205.692 512.463 205.523C512.438 205.353 512.447 205.181 512.488 205.015C512.53 204.849 512.604 204.693 512.705 204.555L524.972 187.957C525.177 187.679 525.484 187.494 525.825 187.443C526.166 187.391 526.512 187.478 526.789 187.683C526.926 187.785 527.041 187.913 527.129 188.059C527.216 188.206 527.274 188.368 527.299 188.538C527.324 188.707 527.315 188.879 527.273 189.045C527.232 189.211 527.158 189.368 527.056 189.505L514.79 206.103C514.633 206.315 514.416 206.475 514.167 206.561C513.919 206.647 513.65 206.655 513.397 206.585Z" fill="white"/>
<path d="M524.338 217.713L505.359 212.43C505.027 212.338 504.746 212.117 504.577 211.816C504.409 211.515 504.366 211.159 504.459 210.826C504.552 210.493 504.772 210.21 505.073 210.04C505.373 209.87 505.728 209.826 506.059 209.919L525.039 215.201C525.37 215.294 525.651 215.514 525.82 215.815C525.989 216.116 526.032 216.472 525.939 216.805C525.846 217.138 525.625 217.421 525.325 217.591C525.025 217.761 524.67 217.805 524.338 217.713ZM551.52 106.465L539.684 103.171C538.622 102.875 537.52 103.501 537.222 104.567C536.925 105.634 537.545 106.738 538.607 107.034L550.442 110.328C551.504 110.624 552.607 109.999 552.904 108.932C553.202 107.865 552.582 106.761 551.52 106.465Z" fill="#100830"/>
<path d="M536.445 226.326L490.538 213.548C486.171 212.333 483.614 207.777 484.837 203.392L514.119 98.4149C515.342 94.0299 519.889 91.4514 524.256 92.6667L570.163 105.445C574.529 106.66 577.087 111.216 575.863 115.601L546.582 220.578C545.359 224.963 540.811 227.541 536.445 226.326ZM523.555 95.1779C520.568 94.3464 517.456 96.1106 516.62 99.1109L487.338 204.088C486.501 207.088 488.251 210.205 491.238 211.037L537.146 223.815C540.133 224.646 543.244 222.882 544.081 219.882L573.363 114.905C574.2 111.905 572.45 108.787 569.463 107.956L523.555 95.1779Z" fill="#100830"/>
</g>
<g clip-path="url(#clip4_296_55185)">
<path d="M169.322 165.301L70.4233 197.391C68.4269 198.039 67.056 199.879 67.001 202.007L64.8532 285.523L174.44 249.965L176.458 170.645C176.555 166.869 172.915 164.135 169.322 165.301Z" fill="white"/>
<path d="M64.9432 285.8L174.53 250.242C174.653 250.203 174.746 250.07 174.737 249.937L176.862 168.233C176.902 166.893 176.297 165.659 175.219 164.851C174.142 164.044 172.785 163.837 171.525 164.246L70.3232 197.083C68.2039 197.771 66.7402 199.743 66.6538 201.984L64.5059 285.5C64.5052 285.602 64.5353 285.694 64.6267 285.767C64.7489 285.829 64.8511 285.83 64.9432 285.8ZM174.115 249.696L65.173 285.045L67.3074 202.01C67.351 200.056 68.6499 198.307 70.5234 197.699L171.726 164.862C172.801 164.513 173.913 164.697 174.848 165.38C175.753 166.074 176.257 167.102 176.219 168.238L174.115 249.696Z" fill="#100830"/>
<path d="M64.8431 285.492L174.43 249.934L224.94 315.785C226.165 317.362 225.435 319.71 223.531 320.327L121.192 353.533C119.196 354.181 117.004 353.497 115.707 351.807L64.8431 285.492Z" fill="white"/>
<path d="M121.292 353.841L223.539 320.665C224.583 320.326 225.344 319.535 225.688 318.504C226.032 317.473 225.804 316.356 225.156 315.511L174.748 249.763C174.677 249.65 174.524 249.598 174.401 249.637L64.8145 285.195C64.7223 285.225 64.6502 285.317 64.6088 285.398C64.5774 285.51 64.6074 285.603 64.6682 285.685L115.532 352C116.828 353.792 119.173 354.529 121.292 353.841ZM174.315 250.312L224.602 315.895C225.139 316.606 225.286 317.477 225.046 318.304C224.775 319.141 224.168 319.78 223.338 320.049L121.092 353.225C119.218 353.833 117.169 353.171 115.954 351.625L65.3833 285.691L174.325 250.343L174.315 250.312Z" fill="#100830"/>
<path d="M73.1875 196.494L171.625 164.554C174.082 163.757 176.593 165.631 176.525 168.24L174.43 249.934L67.6073 284.595L69.7652 201.111C69.8202 198.982 71.1911 197.142 73.1875 196.494Z" fill="#100830"/>
<path d="M171.249 167.467L74.7764 198.77C73.5478 199.168 72.6924 200.297 72.6736 201.597L70.672 278.461C70.6438 279.627 71.7621 280.456 72.8678 280.097L170.476 248.426C171.306 248.157 171.903 247.384 171.919 246.494L173.902 169.466C173.952 168.054 172.569 167.039 171.249 167.467Z" fill="url(#paint0_linear_296_55185)"/>
<path d="M124.056 352.944L160.084 341.255C160.268 341.195 160.351 341.032 160.291 340.847C160.231 340.662 160.068 340.579 159.883 340.639L123.825 352.338C121.952 352.946 119.903 352.284 118.687 350.738L67.823 284.423C67.7115 284.289 67.4972 284.257 67.3636 284.368C67.2301 284.479 67.198 284.694 67.3095 284.828L118.174 351.143C119.592 352.895 121.937 353.632 124.056 352.944Z" fill="#100830"/>
<path d="M67.7074 284.903C67.8303 284.863 67.9231 284.731 67.9138 284.598L70.0716 201.113C70.1152 199.159 71.4141 197.41 73.2876 196.802L78.8775 194.988C79.0618 194.928 79.1446 194.765 79.0845 194.581C79.0245 194.396 78.8616 194.313 78.6773 194.372L73.0874 196.186C70.9681 196.874 69.5044 198.847 69.418 201.087L67.2701 284.603C67.2588 284.776 67.411 284.931 67.5846 284.943L67.7074 284.903ZM76.4318 284.898L170.416 254.403C171.092 254.183 171.816 254.425 172.231 254.971L198.524 289.262C199.172 290.107 198.796 291.352 197.782 291.681L104.32 322.007C103.245 322.355 102.073 321.987 101.374 321.09L75.6076 287.48C74.9394 286.573 75.3261 285.256 76.4318 284.898ZM155.977 339.694L192.742 327.765C193.417 327.545 193.901 327.048 194.12 326.364C194.339 325.68 194.19 325.014 193.765 324.437L176.557 302.006C176.02 301.295 175.072 300.99 174.212 301.269L137.478 313.188C136.803 313.407 136.319 313.905 136.1 314.588C135.881 315.272 136.03 315.939 136.455 316.516L153.663 338.947C154.21 339.688 155.117 339.973 155.977 339.694ZM174.422 301.916C175.006 301.726 175.679 301.916 176.043 302.411L193.251 324.842C193.545 325.223 193.634 325.705 193.487 326.195C193.331 326.654 193.002 326.999 192.541 327.149L155.808 339.068C155.224 339.257 154.551 339.067 154.186 338.573L136.978 316.141C136.685 315.76 136.596 315.278 136.742 314.788C136.899 314.329 137.228 313.984 137.688 313.835L174.422 301.916Z" fill="#100830"/>
<path d="M77.2399 295.528L181.452 261.714C181.636 261.655 181.719 261.492 181.659 261.307C181.599 261.122 181.436 261.039 181.252 261.099L77.0396 294.912C76.8553 294.972 76.7725 295.135 76.8326 295.32C76.8927 295.505 77.0863 295.578 77.2399 295.528ZM86.3225 304.665L187.678 271.778C187.862 271.719 187.945 271.555 187.885 271.371C187.825 271.186 187.662 271.103 187.478 271.162L86.1222 304.049C85.9379 304.109 85.8551 304.272 85.9152 304.457C85.9753 304.642 86.1689 304.715 86.3225 304.665ZM95.4051 313.802L194.734 281.573C194.918 281.513 195.001 281.35 194.941 281.166C194.881 280.981 194.718 280.897 194.533 280.957L95.2048 313.186C95.0206 313.246 94.9377 313.409 94.9978 313.594C95.0579 313.779 95.2515 313.852 95.4051 313.802Z" fill="white"/>
<path d="M126.369 315.363C126.4 315.353 126.431 315.343 126.452 315.302C126.585 315.191 126.627 315.007 126.506 314.842L97.4624 276.27C97.3509 276.136 97.1673 276.093 97.003 276.215C96.8695 276.326 96.8274 276.51 96.9489 276.675L125.992 315.247C126.104 315.381 126.247 315.403 126.369 315.363ZM131.761 301.87C131.792 301.86 131.822 301.85 131.843 301.809C131.977 301.698 132.009 301.483 131.897 301.349L110.489 272.996C110.377 272.862 110.194 272.82 110.03 272.941C109.896 273.052 109.864 273.267 109.975 273.401L131.384 301.754C131.485 301.857 131.638 301.91 131.761 301.87ZM144.312 297.865C144.343 297.855 144.374 297.845 144.394 297.805C144.528 297.693 144.56 297.479 144.449 297.344L122.148 267.92C122.037 267.785 121.823 267.753 121.689 267.864C121.555 267.976 121.523 268.19 121.635 268.324L143.976 297.77C144.047 297.883 144.189 297.905 144.312 297.865ZM156.793 293.748C156.823 293.738 156.854 293.728 156.875 293.687C157.008 293.576 157.04 293.361 156.929 293.227L135.306 264.841C135.195 264.707 134.981 264.675 134.847 264.786C134.714 264.898 134.681 265.112 134.793 265.246L156.416 293.632C156.517 293.735 156.639 293.797 156.793 293.748ZM169.293 289.692C169.324 289.682 169.355 289.672 169.375 289.631C169.509 289.519 169.541 289.305 169.43 289.171L147.442 260.393C147.33 260.259 147.116 260.227 146.982 260.338C146.849 260.45 146.817 260.664 146.928 260.798L168.916 289.576C169.018 289.679 169.17 289.731 169.293 289.692ZM174.471 276.064C174.502 276.054 174.533 276.044 174.553 276.003C174.687 275.891 174.719 275.677 174.607 275.543L160.701 257.419C160.59 257.285 160.376 257.252 160.242 257.363C160.108 257.475 160.076 257.689 160.188 257.823L174.094 275.948C174.195 276.051 174.348 276.103 174.471 276.064ZM209.485 321.719C209.515 321.709 209.546 321.699 209.567 321.658C209.7 321.547 209.732 321.332 209.621 321.198L182.022 285.187C181.91 285.053 181.696 285.021 181.562 285.132C181.429 285.243 181.397 285.458 181.508 285.592L209.107 321.603C209.219 321.737 209.362 321.759 209.485 321.719ZM99.5295 300.38C99.5602 300.37 99.5909 300.36 99.6116 300.319C99.7451 300.208 99.7872 300.024 99.6657 299.859L92.3645 290.144C92.253 290.01 92.0694 289.968 91.9052 290.089C91.7716 290.2 91.7295 290.384 91.851 290.549L99.1522 300.264C99.2537 300.367 99.4066 300.42 99.5295 300.38ZM113.727 319.295C113.757 319.285 113.788 319.275 113.809 319.234C113.942 319.123 113.984 318.939 113.863 318.774L106.916 309.523C106.805 309.389 106.621 309.346 106.457 309.467C106.323 309.579 106.281 309.763 106.403 309.928L113.349 319.179C113.451 319.282 113.604 319.335 113.727 319.295Z" fill="white"/>
</g>
<g clip-path="url(#clip5_296_55185)">
<path d="M536.633 276.578H474.99C470.28 276.578 466.461 280.397 466.461 285.108V320.891C466.461 325.601 470.28 329.42 474.99 329.42H493.911L505.394 346.385L515.932 329.42H536.633C541.343 329.42 545.162 325.601 545.162 320.89V285.108C545.162 280.397 541.343 276.578 536.633 276.578Z" fill="#100830"/>
<path d="M533.126 296.209C532.44 290.287 524.554 286.335 515.513 287.382C506.471 288.43 499.698 294.08 500.384 300.002C501.07 305.925 508.956 309.877 517.997 308.829C518.692 308.748 519.384 308.638 520.07 308.498L526.251 314.68L526.016 306.443C530.693 304.022 533.586 300.178 533.126 296.209Z" fill="white"/>
<path d="M501.638 293.029C501.638 293.029 498.309 291.458 494.976 291.023C485.95 289.847 477.914 294.417 477.026 301.23C476.508 305.206 478.525 309.246 482.097 312.051L481.251 320.977L488.028 315.039C489.247 315.385 490.498 315.604 491.761 315.695C504.838 316.627 507.063 308.84 507.063 308.84C500.11 306.615 496.495 299.106 501.638 293.029Z" fill="white"/>
</g>
<g clip-path="url(#clip6_296_55185)">
<path d="M365.527 327.172L274.455 365.909C273.475 366.325 273.132 367.605 273.69 368.764L311.033 446.23C311.592 447.389 312.842 447.991 313.822 447.574L321.465 444.323L373.128 338.499L368.316 328.516C367.757 327.357 366.51 326.754 365.527 327.172Z" fill="#100830"/>
<path d="M313.165 447.884C312.272 447.884 311.341 447.28 310.872 446.308L273.53 368.842C273.207 368.172 273.155 367.432 273.388 366.811C273.573 366.318 273.927 365.939 274.386 365.744L365.457 327.008C366.523 326.554 367.878 327.196 368.477 328.439L373.289 338.421C373.3 338.445 373.307 338.472 373.307 338.499C373.306 338.526 373.3 338.553 373.288 338.577L321.625 444.402C321.606 444.44 321.574 444.471 321.535 444.488L313.892 447.738C313.662 447.835 313.415 447.885 313.165 447.884ZM366.189 327.218C365.986 327.217 365.784 327.257 365.596 327.337L274.525 366.073C274.152 366.232 273.874 366.53 273.722 366.937C273.523 367.466 273.57 368.104 273.851 368.687L311.193 446.152C311.711 447.225 312.859 447.79 313.753 447.409L321.334 444.185L372.93 338.498L368.156 328.594C367.748 327.748 366.948 327.218 366.189 327.218Z" fill="#D0DAF9"/>
<path d="M453.194 400.323L419.243 329.894L415.85 322.853C415.291 321.694 414.042 321.096 413.062 321.513L373.128 338.499L289.703 373.983C288.72 374.401 288.374 375.677 288.933 376.836L292.327 383.876L309.712 419.942L321.465 444.323L326.277 454.305C326.834 455.461 328.085 456.063 329.068 455.645L339.096 451.379L452.427 403.175C453.407 402.758 453.751 401.479 453.194 400.323Z" fill="#5223E2"/>
<path d="M328.408 455.955C327.514 455.955 326.584 455.353 326.116 454.383L288.772 376.914C288.45 376.246 288.398 375.508 288.631 374.889C288.816 374.395 289.172 374.015 289.633 373.819L412.993 321.349C414.059 320.895 415.412 321.535 416.01 322.776L453.354 400.245C453.676 400.913 453.727 401.652 453.495 402.272C453.31 402.765 452.955 403.144 452.497 403.339L329.137 455.809C328.906 455.907 328.658 455.957 328.408 455.955ZM413.726 321.559C413.522 321.558 413.32 321.598 413.132 321.678L289.772 374.148C289.397 374.307 289.117 374.607 288.964 375.015C288.766 375.542 288.813 376.178 289.094 376.759L326.438 454.228C326.954 455.299 328.103 455.861 328.998 455.48L452.357 403.01C452.725 402.854 453.011 402.547 453.161 402.146C453.359 401.617 453.313 400.981 453.033 400.401L415.689 322.931C415.282 322.087 414.483 321.559 413.726 321.559Z" fill="#D0DAF9"/>
<path d="M353.628 335.314C352.857 335.643 352.584 336.646 353.023 337.556C353.462 338.466 354.444 338.936 355.216 338.608C355.988 338.28 356.257 337.277 355.818 336.367C355.379 335.457 354.4 334.986 353.628 335.314Z" fill="#5223E2"/>
<path d="M354.698 338.89C353.981 338.89 353.236 338.409 352.863 337.634C352.605 337.1 352.564 336.509 352.75 336.013C352.9 335.615 353.187 335.308 353.559 335.15C354.415 334.786 355.5 335.297 355.979 336.289C356.237 336.825 356.278 337.416 356.092 337.912C355.943 338.309 355.657 338.615 355.286 338.772C355.1 338.851 354.9 338.891 354.698 338.89ZM353.628 335.314L353.698 335.479C353.413 335.6 353.201 335.829 353.084 336.139C352.932 336.544 352.968 337.032 353.184 337.479C353.581 338.302 354.461 338.735 355.146 338.444C355.431 338.323 355.642 338.095 355.758 337.786C355.91 337.382 355.873 336.893 355.658 336.445C355.261 335.622 354.381 335.188 353.698 335.479L353.628 335.314Z" fill="#D0DAF9"/>
<path d="M358.806 333.112C358.034 333.44 357.765 334.442 358.204 335.353C358.642 336.263 359.622 336.734 360.393 336.406C361.165 336.077 361.434 335.075 360.995 334.165C360.556 333.255 359.577 332.784 358.806 333.112Z" fill="#5223E2"/>
<path d="M359.877 336.688C359.161 336.688 358.417 336.206 358.043 335.43C357.785 334.895 357.744 334.304 357.93 333.808C358.079 333.411 358.365 333.106 358.736 332.948C359.592 332.584 360.678 333.095 361.156 334.087C361.414 334.623 361.456 335.214 361.27 335.71C361.121 336.107 360.834 336.413 360.463 336.57C360.278 336.648 360.079 336.688 359.877 336.688ZM359.328 333.186C359.173 333.186 359.02 333.215 358.875 333.277C358.591 333.398 358.38 333.625 358.263 333.934C358.112 334.339 358.148 334.827 358.364 335.275C358.761 336.098 359.64 336.532 360.324 336.241C360.608 336.12 360.82 335.893 360.936 335.584C361.088 335.179 361.051 334.69 360.835 334.243C360.522 333.593 359.909 333.186 359.328 333.186Z" fill="#D0DAF9"/>
<path d="M363.983 330.91C363.211 331.238 362.942 332.24 363.381 333.15C363.82 334.061 364.799 334.532 365.571 334.204C366.343 333.875 366.615 332.872 366.176 331.962C365.738 331.051 364.755 330.582 363.983 330.91Z" fill="#5223E2"/>
<path d="M365.055 334.485C364.339 334.485 363.594 334.004 363.22 333.228C362.962 332.693 362.921 332.102 363.107 331.606C363.256 331.209 363.543 330.903 363.914 330.745C364.771 330.381 365.858 330.891 366.337 331.884C366.594 332.418 366.635 333.009 366.449 333.505C366.299 333.903 366.012 334.21 365.641 334.368C365.455 334.446 365.256 334.486 365.055 334.485ZM364.053 331.074C363.769 331.195 363.557 331.423 363.441 331.732C363.289 332.137 363.326 332.625 363.541 333.073C363.938 333.896 364.818 334.33 365.501 334.039C365.787 333.918 365.999 333.689 366.115 333.379C366.267 332.974 366.231 332.486 366.016 332.039C365.619 331.216 364.738 330.783 364.053 331.074Z" fill="#D0DAF9"/>
<path d="M402.033 329.722C401.262 330.051 400.992 331.053 401.431 331.963C401.87 332.873 402.851 333.348 403.623 333.019C404.394 332.691 404.665 331.684 404.227 330.774C403.788 329.864 402.805 329.394 402.033 329.722Z" fill="#100830"/>
<path d="M403.108 333.301C402.391 333.301 401.645 332.818 401.271 332.041C401.013 331.506 400.971 330.914 401.157 330.419C401.306 330.021 401.593 329.716 401.964 329.558C402.822 329.193 403.909 329.704 404.387 330.696C404.645 331.232 404.686 331.824 404.5 332.322C404.35 332.72 404.064 333.026 403.693 333.184C403.507 333.262 403.308 333.302 403.108 333.301ZM402.558 329.796C402.402 329.796 402.248 329.825 402.103 329.887C401.819 330.008 401.607 330.235 401.491 330.545C401.339 330.949 401.376 331.438 401.592 331.885C401.989 332.711 402.869 333.146 403.553 332.855C403.837 332.734 404.049 332.506 404.166 332.196C404.318 331.789 404.282 331.3 404.066 330.852C403.753 330.202 403.139 329.796 402.558 329.796Z" fill="#D0DAF9"/>
<path d="M407.211 327.52C406.439 327.849 406.17 328.851 406.609 329.761C407.047 330.671 408.029 331.146 408.8 330.817C409.575 330.488 409.843 329.482 409.404 328.572C408.965 327.662 407.986 327.191 407.211 327.52Z" fill="#100830"/>
<path d="M408.285 331.099C407.568 331.099 406.823 330.616 406.448 329.839C406.19 329.303 406.149 328.712 406.335 328.216C406.484 327.819 406.77 327.513 407.141 327.356C407.999 326.991 409.086 327.501 409.564 328.494C409.823 329.03 409.864 329.623 409.678 330.12C409.529 330.518 409.242 330.824 408.87 330.982C408.685 331.06 408.486 331.1 408.285 331.099ZM407.28 327.685C406.996 327.806 406.784 328.033 406.669 328.342C406.517 328.747 406.553 329.235 406.769 329.683C407.167 330.508 408.047 330.944 408.731 330.653C409.016 330.531 409.228 330.304 409.344 329.994C409.496 329.588 409.459 329.098 409.243 328.649C408.846 327.826 407.966 327.393 407.28 327.685Z" fill="#D0DAF9"/>
<path d="M412.391 325.317C411.62 325.645 411.347 326.648 411.786 327.558C412.225 328.469 413.209 328.942 413.981 328.614C414.752 328.285 415.02 327.28 414.581 326.369C414.143 325.459 413.163 324.988 412.391 325.317Z" fill="#100830"/>
<path d="M413.463 328.896C412.746 328.896 412 328.413 411.626 327.636C411.368 327.102 411.327 326.511 411.513 326.015C411.663 325.617 411.95 325.31 412.322 325.152C413.178 324.788 414.263 325.299 414.742 326.292C415.001 326.828 415.042 327.421 414.855 327.918C414.706 328.315 414.42 328.621 414.05 328.778C413.865 328.857 413.665 328.897 413.463 328.896ZM412.914 325.39C412.758 325.39 412.604 325.421 412.461 325.481C412.176 325.602 411.963 325.83 411.847 326.141C411.695 326.546 411.732 327.034 411.947 327.48C412.345 328.306 413.226 328.741 413.911 328.449C414.195 328.328 414.406 328.101 414.522 327.793C414.674 327.386 414.637 326.896 414.421 326.447C414.108 325.798 413.494 325.39 412.914 325.39ZM419.243 329.894L304.135 378.854L339.096 451.379L452.427 403.175C453.407 402.758 453.751 401.478 453.193 400.323L419.243 329.894Z" fill="#D0DAF9"/>
<path d="M339.096 451.558C339.063 451.558 339.03 451.549 339.001 451.531C338.973 451.513 338.95 451.487 338.935 451.457L303.975 378.932C303.964 378.91 303.958 378.886 303.957 378.862C303.956 378.838 303.96 378.814 303.968 378.791C303.977 378.769 303.99 378.748 304.007 378.73C304.023 378.713 304.043 378.699 304.065 378.689L419.174 329.729C419.216 329.711 419.263 329.71 419.306 329.727C419.349 329.743 419.384 329.775 419.404 329.816L453.354 400.245C453.676 400.913 453.727 401.652 453.495 402.272C453.31 402.765 452.955 403.144 452.497 403.339L339.166 451.544C339.144 451.553 339.12 451.558 339.096 451.558ZM304.377 378.945L339.183 451.148L452.357 403.01C452.725 402.854 453.011 402.547 453.161 402.146C453.36 401.617 453.313 400.981 453.033 400.401L419.157 330.125L304.377 378.945Z" fill="#D0DAF9"/>
<path d="M304.135 378.854L292.327 383.876L326.277 454.305C326.834 455.461 328.085 456.063 329.068 455.645L339.096 451.379L304.135 378.854Z" fill="#5223E2"/>
<path d="M328.408 455.955C327.514 455.955 326.584 455.353 326.117 454.383L292.166 383.954C292.156 383.933 292.15 383.909 292.149 383.885C292.148 383.86 292.151 383.836 292.16 383.814C292.168 383.791 292.181 383.77 292.198 383.753C292.215 383.735 292.235 383.721 292.257 383.712L304.066 378.689C304.108 378.671 304.155 378.67 304.198 378.687C304.241 378.703 304.276 378.735 304.296 378.776L339.257 451.301C339.267 451.323 339.273 451.347 339.274 451.371C339.275 451.395 339.271 451.419 339.263 451.442C339.254 451.465 339.241 451.485 339.225 451.503C339.208 451.52 339.188 451.534 339.166 451.544L329.137 455.809C328.906 455.907 328.658 455.956 328.408 455.955ZM292.569 383.968L326.438 454.228C326.954 455.299 328.103 455.861 328.998 455.48L338.854 451.288L304.049 379.085L292.569 383.968Z" fill="#D0DAF9"/>
<path d="M310.548 406.917C310.017 407.143 309.83 407.836 310.132 408.463C310.435 409.09 311.113 409.416 311.644 409.19C312.176 408.964 312.362 408.27 312.06 407.643C311.758 407.016 311.08 406.69 310.548 406.917Z" fill="#D0DAF9"/>
<path d="M311.288 409.44C310.773 409.44 310.239 409.096 309.972 408.541C309.787 408.159 309.758 407.735 309.892 407.378C310.001 407.089 310.209 406.867 310.478 406.752C311.096 406.489 311.877 406.854 312.22 407.566C312.405 407.948 312.434 408.372 312.3 408.729C312.191 409.018 311.983 409.24 311.713 409.355C311.579 409.412 311.434 409.441 311.288 409.44ZM310.91 407.023C310.809 407.023 310.711 407.041 310.617 407.081C310.436 407.158 310.301 407.304 310.226 407.503C310.126 407.769 310.151 408.091 310.293 408.386C310.554 408.928 311.129 409.215 311.574 409.026C311.756 408.948 311.891 408.802 311.966 408.603C312.066 408.337 312.041 408.016 311.899 407.721C311.693 407.292 311.289 407.023 310.91 407.023ZM319.376 425.231C318.845 425.457 318.658 426.151 318.961 426.778C319.265 427.408 319.941 427.731 320.472 427.505C321.004 427.279 321.192 426.589 320.888 425.958C320.586 425.331 319.908 425.005 319.376 425.231Z" fill="#D0DAF9"/>
<path d="M320.117 427.755C319.602 427.755 319.068 427.41 318.8 426.856C318.616 426.473 318.587 426.049 318.721 425.692C318.829 425.403 319.037 425.181 319.307 425.067C319.925 424.804 320.706 425.169 321.049 425.88C321.233 426.263 321.263 426.687 321.129 427.043C321.021 427.332 320.812 427.554 320.542 427.669C320.407 427.726 320.263 427.755 320.117 427.755ZM319.738 425.337C319.638 425.337 319.539 425.356 319.446 425.395C319.265 425.473 319.129 425.619 319.055 425.818C318.955 426.084 318.979 426.405 319.121 426.7C319.383 427.242 319.957 427.53 320.403 427.34C320.585 427.263 320.721 427.116 320.796 426.917C320.895 426.652 320.87 426.331 320.728 426.036C320.521 425.607 320.118 425.337 319.738 425.337Z" fill="#D0DAF9"/>
<path d="M346.383 370.975L366.353 362.48L346.383 370.975Z" fill="#5223E2"/>
<path d="M346.383 371.153C346.342 371.153 346.302 371.139 346.27 371.113C346.238 371.087 346.217 371.051 346.208 371.01C346.2 370.97 346.206 370.928 346.225 370.891C346.244 370.855 346.276 370.826 346.314 370.81L366.284 362.316C366.305 362.306 366.329 362.301 366.352 362.301C366.376 362.3 366.399 362.305 366.421 362.313C366.443 362.322 366.463 362.335 366.48 362.352C366.497 362.368 366.51 362.388 366.52 362.41C366.529 362.431 366.534 362.455 366.534 362.478C366.534 362.502 366.529 362.526 366.52 362.547C366.511 362.569 366.498 362.589 366.481 362.606C366.465 362.623 366.445 362.636 366.423 362.645L346.453 371.139C346.43 371.149 346.407 371.153 346.383 371.153Z" fill="#D0DAF9"/>
<path d="M314.518 384.528L340.783 373.357L314.518 384.528Z" fill="#5223E2"/>
<path d="M314.518 384.707C314.477 384.707 314.437 384.693 314.405 384.667C314.373 384.641 314.351 384.604 314.343 384.564C314.335 384.523 314.341 384.481 314.36 384.445C314.379 384.408 314.41 384.38 314.448 384.364L340.713 373.192C340.735 373.183 340.758 373.177 340.782 373.177C340.805 373.176 340.829 373.181 340.851 373.189C340.873 373.198 340.893 373.211 340.91 373.228C340.927 373.244 340.94 373.264 340.949 373.286C340.959 373.308 340.963 373.331 340.964 373.355C340.964 373.378 340.959 373.402 340.95 373.424C340.941 373.446 340.928 373.465 340.911 373.482C340.894 373.499 340.874 373.512 340.853 373.521L314.588 384.693C314.566 384.702 314.542 384.707 314.518 384.707Z" fill="#D0DAF9"/>
<path d="M338.493 385.368L388.02 364.302L338.493 385.368Z" fill="#5223E2"/>
<path d="M338.494 385.546C338.452 385.546 338.413 385.532 338.381 385.506C338.349 385.48 338.327 385.444 338.319 385.403C338.31 385.363 338.316 385.321 338.336 385.284C338.355 385.248 338.386 385.219 338.424 385.203L387.951 364.137C387.994 364.119 388.043 364.119 388.086 364.137C388.13 364.155 388.164 364.189 388.182 364.233C388.201 364.276 388.201 364.325 388.184 364.368C388.167 364.412 388.133 364.447 388.09 364.466L338.563 385.532C338.541 385.542 338.517 385.546 338.494 385.546Z" fill="#D0DAF9"/>
<path d="M318.933 393.687L335.391 386.687L318.933 393.687Z" fill="#5223E2"/>
<path d="M318.933 393.866C318.892 393.866 318.852 393.852 318.82 393.826C318.788 393.8 318.767 393.764 318.758 393.723C318.75 393.683 318.756 393.641 318.775 393.604C318.794 393.568 318.826 393.539 318.864 393.523L335.321 386.523C335.343 386.513 335.366 386.508 335.39 386.508C335.413 386.507 335.437 386.511 335.459 386.52C335.481 386.529 335.501 386.542 335.518 386.558C335.535 386.575 335.548 386.595 335.557 386.616C335.567 386.638 335.571 386.662 335.571 386.685C335.572 386.709 335.567 386.733 335.558 386.754C335.549 386.776 335.536 386.796 335.519 386.813C335.502 386.83 335.482 386.843 335.461 386.852L319.003 393.852C318.98 393.862 318.956 393.866 318.933 393.866Z" fill="#D0DAF9"/>
<path d="M350.745 391.189L380.436 378.56L350.745 391.189Z" fill="#5223E2"/>
<path d="M350.745 391.368C350.704 391.368 350.664 391.354 350.632 391.327C350.6 391.301 350.578 391.265 350.57 391.225C350.562 391.184 350.568 391.142 350.587 391.106C350.606 391.069 350.637 391.04 350.675 391.024L380.367 378.395C380.388 378.386 380.411 378.381 380.435 378.38C380.459 378.38 380.482 378.384 380.504 378.393C380.526 378.402 380.546 378.415 380.563 378.431C380.58 378.448 380.593 378.467 380.603 378.489C380.612 378.511 380.617 378.534 380.617 378.558C380.617 378.582 380.612 378.605 380.603 378.627C380.594 378.649 380.581 378.669 380.564 378.686C380.548 378.702 380.528 378.715 380.506 378.724L350.815 391.353C350.793 391.363 350.769 391.368 350.745 391.368Z" fill="#D0DAF9"/>
<path d="M332.619 398.899L347.597 392.528L332.619 398.899Z" fill="#5223E2"/>
<path d="M332.619 399.077C332.578 399.077 332.538 399.063 332.506 399.037C332.474 399.011 332.452 398.975 332.444 398.934C332.436 398.894 332.442 398.852 332.461 398.815C332.48 398.779 332.511 398.75 332.549 398.734L347.528 392.363C347.549 392.354 347.573 392.348 347.596 392.348C347.62 392.347 347.643 392.352 347.665 392.36C347.687 392.369 347.707 392.382 347.724 392.399C347.741 392.415 347.755 392.435 347.764 392.457C347.773 392.479 347.778 392.502 347.778 392.526C347.778 392.549 347.774 392.573 347.765 392.595C347.756 392.617 347.742 392.636 347.726 392.653C347.709 392.67 347.689 392.683 347.667 392.692L332.689 399.063C332.667 399.073 332.643 399.077 332.619 399.077Z" fill="#D0DAF9"/>
<path d="M337.034 408.058L359.543 398.484L337.034 408.058Z" fill="#5223E2"/>
<path d="M337.034 408.237C336.993 408.237 336.953 408.222 336.921 408.196C336.889 408.17 336.868 408.134 336.859 408.093C336.851 408.053 336.857 408.011 336.876 407.975C336.895 407.938 336.927 407.909 336.965 407.893L359.474 398.319C359.496 398.31 359.519 398.304 359.542 398.304C359.566 398.304 359.589 398.308 359.611 398.317C359.633 398.325 359.653 398.338 359.67 398.355C359.687 398.371 359.701 398.391 359.71 398.413C359.719 398.435 359.724 398.458 359.724 398.482C359.724 398.505 359.72 398.529 359.711 398.551C359.702 398.573 359.688 398.593 359.672 398.609C359.655 398.626 359.635 398.639 359.613 398.648L337.104 408.222C337.082 408.232 337.058 408.237 337.034 408.237Z" fill="#D0DAF9"/>
<path d="M332.175 421.157L376.742 402.201L332.175 421.157Z" fill="#5223E2"/>
<path d="M332.175 421.336C332.134 421.336 332.094 421.322 332.062 421.296C332.03 421.27 332.008 421.233 332 421.193C331.992 421.153 331.998 421.111 332.017 421.074C332.036 421.038 332.067 421.009 332.105 420.993L376.672 402.036C376.694 402.027 376.717 402.022 376.741 402.021C376.764 402.021 376.788 402.025 376.81 402.034C376.832 402.043 376.852 402.056 376.869 402.072C376.886 402.089 376.899 402.108 376.908 402.13C376.918 402.152 376.922 402.175 376.922 402.199C376.923 402.223 376.918 402.246 376.909 402.268C376.9 402.29 376.887 402.31 376.87 402.327C376.853 402.343 376.833 402.356 376.812 402.365L332.244 421.322C332.222 421.331 332.199 421.336 332.175 421.336Z" fill="#D0DAF9"/>
<path d="M345.863 426.372L364.344 418.511L345.863 426.372Z" fill="#5223E2"/>
<path d="M345.863 426.551C345.822 426.551 345.782 426.537 345.75 426.511C345.718 426.485 345.696 426.448 345.688 426.408C345.68 426.367 345.686 426.325 345.705 426.289C345.724 426.252 345.755 426.224 345.793 426.208L364.274 418.347C364.296 418.337 364.319 418.332 364.343 418.332C364.367 418.331 364.39 418.336 364.412 418.344C364.434 418.353 364.454 418.366 364.471 418.383C364.488 418.399 364.501 418.419 364.51 418.441C364.52 418.462 364.524 418.486 364.525 418.509C364.525 418.533 364.52 418.557 364.511 418.578C364.502 418.6 364.489 418.62 364.472 418.637C364.455 418.654 364.436 418.667 364.414 418.676L345.932 426.537C345.91 426.546 345.887 426.551 345.863 426.551Z" fill="#D0DAF9"/>
<path d="M350.276 435.527L382.42 421.855L350.276 435.527Z" fill="#5223E2"/>
<path d="M350.276 435.706C350.235 435.706 350.195 435.692 350.163 435.666C350.131 435.64 350.109 435.604 350.101 435.563C350.093 435.523 350.099 435.481 350.118 435.444C350.137 435.408 350.168 435.379 350.206 435.363L382.35 421.691C382.372 421.681 382.395 421.676 382.419 421.676C382.442 421.675 382.466 421.68 382.488 421.688C382.51 421.697 382.53 421.71 382.547 421.727C382.563 421.743 382.577 421.763 382.586 421.785C382.595 421.806 382.6 421.83 382.6 421.854C382.6 421.877 382.596 421.901 382.587 421.923C382.578 421.944 382.565 421.964 382.548 421.981C382.531 421.998 382.511 422.011 382.489 422.02L350.346 435.692C350.324 435.701 350.3 435.706 350.276 435.706Z" fill="#D0DAF9"/>
</g>
<defs>
<linearGradient id="paint0_linear_296_55185" x1="146.389" y1="298.041" x2="99.9297" y2="154.857" gradientUnits="userSpaceOnUse">
<stop stop-color="#100830"/>
<stop offset="0.508" stop-color="#5223E2"/>
<stop offset="1" stop-color="#5223E2"/>
</linearGradient>
<clipPath id="clip0_296_55185">
<rect width="452.312" height="317.225" fill="white" transform="translate(102.577 80.8528)"/>
</clipPath>
<clipPath id="clip1_296_55185">
<rect width="188.344" height="104.723" fill="white" transform="matrix(0.995366 -0.0961553 0.0964755 0.995335 209.389 55.2451)"/>
</clipPath>
<clipPath id="clip2_296_55185">
<rect width="188.344" height="104.723" fill="white" transform="matrix(0.995366 -0.0961553 0.0964755 0.995335 211.599 55.2451)"/>
</clipPath>
<clipPath id="clip3_296_55185">
<rect width="64.0916" height="125.496" fill="white" transform="matrix(0.963378 0.268149 -0.268678 0.96323 516.337 90.4626)"/>
</clipPath>
<clipPath id="clip4_296_55185">
<rect width="143.659" height="164.836" fill="white" transform="matrix(-0.951182 0.308631 0.30921 0.950994 175.702 162.891)"/>
</clipPath>
<clipPath id="clip5_296_55185">
<rect width="78.7014" height="69.8073" fill="white" transform="translate(466.461 276.578)"/>
</clipPath>
<clipPath id="clip6_296_55185">
<rect width="180.394" height="134.755" fill="white" transform="translate(273.244 321.202)"/>
</clipPath>
</defs>
</svg>
