<svg width="386" height="126" viewBox="0 0 386 126" fill="none" xmlns="http://www.w3.org/2000/svg">
<path d="M358.556 377.548L235.497 448.403C220.684 456.946 201.785 451.799 193.292 437.073L15.524 128.634C6.98098 113.821 12.1276 94.9222 26.9407 86.3792L150 15.5239C164.813 6.98089 183.712 12.1276 192.205 26.854L369.972 335.293C378.429 350.156 373.369 369.005 358.556 377.548Z" fill="#100830"/>
<path d="M155.985 26.5022L132.163 40.241C128.957 42.0895 127.907 46.2737 129.856 49.6521L132.354 53.9834C134.302 57.3618 133.252 61.546 130.047 63.3945L83.5287 90.2225C80.3235 92.071 76.176 90.8844 74.2276 87.506L71.7296 83.1746C69.7812 79.7962 65.6337 78.6096 62.4285 80.4581L54.0258 85.3041L33.1489 97.3443C22.7538 103.339 19.1971 116.588 25.1921 126.983L198.713 428.059C204.709 438.454 217.957 442.011 228.352 436.016L351.152 365.31C361.547 359.315 365.103 346.066 359.108 335.671L185.587 34.5956C179.629 24.0638 166.38 20.5071 155.985 26.5022Z" fill="white"/>
<path d="M211.303 78.9846L185.424 34.1123C179.356 23.9903 166.293 20.5569 156.071 26.4521L132.249 40.1909C129.044 42.0393 127.994 46.2235 129.942 49.602L132.44 53.9333C134.389 57.3117 133.339 61.4959 130.134 63.3443L83.6154 90.1724C80.4102 92.0209 76.2627 90.8342 74.3143 87.4558L71.8163 83.1245C69.8679 79.7461 65.7204 78.5595 62.5152 80.4079L54.1125 85.254L33.2356 97.2941C22.8405 103.289 19.2838 116.538 25.2789 126.933L51.0578 171.632L211.403 79.1579L211.303 78.9846Z" fill="#EBEBEB"/>
<path d="M224.943 159.082L158.761 197.251C155.469 199.15 151.235 198.013 149.336 194.721L133.299 166.914L122.276 164.614L129.552 160.417L201.712 118.801C205.004 116.903 209.238 118.04 211.136 121.331L227.473 149.658C229.371 152.95 228.235 157.184 224.943 159.082Z" fill="#EBEBEB"/>
<path d="M107.979 106.597C106.88 104.691 107.603 102.542 109.509 101.443C110.635 100.794 111.751 100.727 112.758 101.071L112.304 102.486C111.571 102.216 110.952 102.343 110.345 102.693C109.133 103.392 108.852 104.708 109.502 105.834C110.201 107.047 111.517 107.327 112.643 106.677C113.25 106.328 113.62 105.768 113.753 104.999L115.206 105.315C114.999 106.358 114.382 107.291 113.256 107.94C111.3 108.953 109.078 108.503 107.979 106.597Z" fill="#263238"/>
<path d="M119.96 100.149L121.559 102.921L120.173 103.72L118.724 101.208C118.275 100.429 117.728 100.282 117.122 100.632C116.429 101.031 116.245 101.714 116.745 102.581L118.144 105.006L116.758 105.805L112.911 99.1353L114.297 98.3359L115.646 100.675C115.793 100.128 116.249 99.5189 116.855 99.1692C117.895 98.5697 119.111 98.6764 119.96 100.149Z" fill="#263238"/>
<path d="M125.504 96.9514L127.103 99.7235L125.804 100.473L125.454 99.8665C125.444 100.449 125.074 101.009 124.381 101.409C123.255 102.058 122.212 101.852 121.713 100.985C121.213 100.119 121.47 99.1629 122.942 98.3136L124.068 97.6641C123.719 97.0577 123.172 96.9111 122.393 97.3607C121.873 97.6605 121.453 98.1335 121.256 98.5932L120.187 97.9401C120.507 97.2938 121.137 96.5843 121.916 96.1347C123.439 95.372 124.655 95.4788 125.504 96.9514ZM124.818 98.9635L124.518 98.4438L123.565 98.9933C122.872 99.393 122.849 99.7528 123.049 100.099C123.248 100.446 123.658 100.556 124.178 100.256C124.611 100.006 124.894 99.4966 124.818 98.9635Z" fill="#263238"/>
<path d="M131.285 96.9659C131.125 97.289 130.791 97.712 130.358 97.9618C129.232 98.6113 128.189 98.4046 127.54 97.2785L126.391 95.286L125.611 95.7357L125.012 94.6962L125.791 94.2465L125.092 93.0338L126.478 92.2344L127.177 93.4472L128.39 92.7478L128.99 93.7873L127.777 94.4867L128.926 96.4791C129.176 96.9122 129.536 96.9356 129.882 96.7358C130.055 96.6358 130.265 96.3994 130.388 96.2128L131.285 96.9659Z" fill="#263238"/>
<path d="M159.956 89.4342C160.006 89.5208 145.38 98.1871 127.102 108.728C108.91 119.22 94.0472 127.676 93.9472 127.503C93.8473 127.33 108.524 118.75 126.802 108.209C145.043 97.8039 159.906 89.3476 159.956 89.4342Z" fill="#263238"/>
<path d="M183.604 62.9825C184.465 62.4858 184.761 61.3851 184.264 60.5239C183.767 59.6628 182.667 59.3673 181.805 59.8639C180.944 60.3606 180.649 61.4613 181.145 62.3225C181.642 63.1836 182.743 63.4791 183.604 62.9825Z" fill="#263238"/>
<path d="M186.862 65.0288C187.361 65.8951 187.068 66.9877 186.202 67.4873C185.336 67.9869 184.243 67.6936 183.743 66.8273C183.244 65.9611 183.537 64.8684 184.403 64.3688C185.27 63.8692 186.362 64.1625 186.862 65.0288Z" fill="#263238"/>
<path d="M189.41 69.4468C189.909 70.313 189.616 71.4057 188.75 71.9053C187.883 72.4049 186.791 72.1116 186.291 71.2453C185.792 70.379 186.085 69.2864 186.951 68.7868C187.867 68.3738 188.96 68.6671 189.41 69.4468Z" fill="#263238"/>
</svg>
