<svg width="540" height="231" viewBox="0 0 540 231" fill="none" xmlns="http://www.w3.org/2000/svg">
<path d="M280.4 46L306.2 31.1C308.9 29.6 310.2 27.6 310.2 25.5C310.2 23.5 310.2 21.9 310.2 21.9L285.9 8.10001C284.5 7.30001 283.3 5.30001 283.3 3.70001V-28L238.2 -2V29.8C238.2 31.4 239.3 33.4 240.8 34.2L261.1 46C266.5 49.1 275.1 49.1 280.4 46Z" fill="#0A022D"/>
<path d="M249.1 35.4V39L240.8 34.2C239.4 33.4 238.2 31.4 238.2 29.8V-2L246.8 -7C247 -4.8 247.2 -2.59999 247.3 -0.399994L241.3 3.10001V28C241.3 29.6 242.4 31.6 243.9 32.4L249.1 35.4Z" fill="#0A022D"/>
<path d="M241.4 28.0002C241.4 29.6002 242.5 31.6002 244 32.4002L261.2 42.4002C266.5 45.5002 275.1 45.5002 280.5 42.4002L306.3 27.5002C311.6 24.4002 311.6 19.5002 306.3 16.4002L289.1 6.40018C287.7 5.60018 286.5 3.60018 286.5 2.00018V-22.7998L241.4 3.2002V28.0002Z" fill="#0A022D"/>
<path opacity="0.15" d="M294.3 9.40018L289.1 6.40018C287.7 5.60018 286.5 3.60018 286.5 2.00018V-22.7998L241.4 3.2002V28.0002C241.4 29.6002 242.5 31.6002 244 32.4002L249.1 35.4002L294.3 9.40018Z" fill="black"/>
<path d="M310.2 22C310.2 22 310.2 23.6 310.2 25.6C310.2 27.6 308.9 29.6 306.2 31.2L280.4 46C277.9 47.5 274.5 48.2 271.2 48.3V44.7C274.5 44.7 277.8 43.9 280.4 42.4L306.2 27.5C308.9 26 310.2 24 310.2 22Z" fill="#0A022D"/>
<path d="M169.1 62.2999C170.8 63.2999 173.5 63.1999 175.3 62.1999C197.4 49.3999 327.4 -25.6001 349.5 -38.4001C351.3 -39.4001 352.7 -41.9001 352.7 -44.0001V-196.4C352.7 -198.4 351.4 -200.9 349.7 -201.8C348 -202.8 345.3 -202.7 343.5 -201.7L169.3 -101.2C167.5 -100.2 166.1 -97.7001 166.1 -95.6001V56.8999C166.1 58.8999 167.4 61.3999 169.1 62.2999Z" fill="#0A022D"/>
<path d="M175.3 62.2001L349.5 -38.3999C351.3 -39.3999 352.7 -41.8999 352.7 -43.9999V-196.5C352.7 -198.5 351.3 -199.4 349.5 -198.4L175.3 -97.6999C173.5 -96.6999 172.1 -94.1999 172.1 -92.0999V60.4001C172.1 62.4001 173.5 63.2001 175.3 62.2001Z" fill="#0A022D"/>
<path d="M178.1 40.1998V-90.2002C178.1 -91.4002 179 -92.9003 180 -93.5003L344.7 -188.6C345.8 -189.2 346.6 -188.7 346.6 -187.5V-57.1003C346.6 -55.9003 345.7 -54.4003 344.7 -53.8003L179.9 41.2997C179 41.8997 178.1 41.3997 178.1 40.1998Z" fill="#5D1EE7"/>
<path opacity="0.7" d="M178.1 40.1998V-90.2002C178.1 -91.4002 179 -92.9003 180 -93.5003L344.7 -188.6C345.8 -189.2 346.6 -188.7 346.6 -187.5V-57.1003C346.6 -55.9003 345.7 -54.4003 344.7 -53.8003L179.9 41.2997C179 41.8997 178.1 41.3997 178.1 40.1998Z" fill="white"/>
<path d="M262.1 5.70015C261.8 5.70015 261.4 5.60013 261.1 5.40013C260.4 5.00013 260 4.20015 260 3.10015C260 1.00015 261.4 -1.39985 263.2 -2.39985C264.1 -2.89985 265 -2.99987 265.7 -2.59987C266.4 -2.19987 266.8 -1.39985 266.8 -0.299848C266.8 1.80015 265.4 4.20015 263.6 5.20015C263.1 5.60015 262.6 5.70015 262.1 5.70015ZM264.8 -2.09987C264.5 -2.09987 264.1 -1.99987 263.6 -1.69987C262 -0.799872 260.8 1.40015 260.8 3.20015C260.8 4.00015 261 4.60013 261.5 4.80013C262 5.10013 262.6 5.00015 263.3 4.60015C264.9 3.70015 266.1 1.50015 266.1 -0.299848C266.1 -1.09985 265.9 -1.69985 265.4 -1.89985C265.2 -1.99985 265 -2.09987 264.8 -2.09987Z" fill="#00DFBF"/>
<path d="M375.3 -164.1L205.6 -66.3001V58.7999C205.6 60.4999 207.4 61.4999 208.8 60.6999L211.8 58.9999L372 -33.4001C373.7 -34.4001 375.2 -36.9001 375.2 -38.9001V-164.1H375.3Z" fill="#F0F0F0"/>
<path d="M374.6 -162.8V-38.9001C374.6 -37.1001 373.3 -34.9001 371.8 -34.1001L211.6 58.2999L208.6 59.9999C208.4 60.0999 208.1 60.1999 207.9 60.1999C207.5 60.1999 207.2 60.0999 206.9 59.7999C206.6 59.4999 206.5 59.1999 206.5 58.7999V-65.8001L374.6 -162.8ZM375.3 -164.1L205.6 -66.3001V58.7999C205.6 60.0999 206.6 60.9999 207.8 60.9999C208.2 60.9999 208.5 60.8999 208.9 60.6999L211.9 58.9999L372.1 -33.4001C373.8 -34.4001 375.3 -36.9001 375.3 -38.9001V-164.1Z" fill="#E1E1E1"/>
<path d="M206.8 60.6999C206.8 60.6999 205.7 60.0999 205.7 58.7999V-62.7001C205.7 -63.7001 205.7 -66.3001 205.7 -66.3001L201.7 -68.6001V55.7999C201.7 55.9999 201.7 56.0999 201.7 56.2999C201.8 57.2999 202.4 58.1999 203.4 58.6999L206.7 60.5999L206.8 60.6999Z" fill="#ECECEC"/>
<path d="M205.7 -66.2002V58.7998C205.7 60.4998 207.5 61.4998 208.9 60.6998L211.9 58.9998L249 37.5998V-91.2002L205.7 -66.2002Z" fill="#FAFAFA"/>
<path d="M252 -89.1002V32.2998L371.8 -36.8002V-158.2L252 -89.1002Z" fill="#FAFAFA"/>
<path d="M223.3 -0.70017L239.5 -10.0002C239.9 -10.3002 240.3 -10.1002 240.3 -9.60016C240.3 -9.10016 239.9 -8.50015 239.5 -8.30015L223.3 0.999843C222.9 1.29984 222.5 1.09985 222.5 0.599849C222.5 0.0998487 222.9 -0.50017 223.3 -0.70017Z" fill="#E1E1E1"/>
<path d="M219.6 3.69992L220.9 1.3999C221 1.2999 221 1.19992 220.9 1.19992L219.6 0.399902C219.5 0.399902 219.4 0.499915 219.4 0.599915V3.69992C219.4 3.79992 219.5 3.79992 219.6 3.69992Z" fill="#375A64"/>
<path d="M223.3 4.39993L239.5 -4.90006C239.9 -5.20006 240.3 -5.00007 240.3 -4.50007C240.3 -4.00007 239.9 -3.40008 239.5 -3.20008L223.3 6.09994C222.9 6.39994 222.5 6.19995 222.5 5.69995C222.5 5.19995 222.9 4.69993 223.3 4.39993Z" fill="#E1E1E1"/>
<path d="M219.6 8.79999L220.9 6.5C221 6.4 221 6.29999 220.9 6.29999L219.6 5.5C219.5 5.5 219.4 5.60001 219.4 5.70001V8.79999C219.4 8.89999 219.5 8.99999 219.6 8.79999Z" fill="#375A64"/>
<path d="M223.3 9.50003L239.5 0.200038C239.9 -0.0999625 240.3 0.100031 240.3 0.600031C240.3 1.10003 239.9 1.70002 239.5 1.90002L223.3 11.2C222.9 11.5 222.5 11.3 222.5 10.8C222.6 10.4 222.9 9.80003 223.3 9.50003Z" fill="#E1E1E1"/>
<path d="M219.6 14.0002L220.9 11.7002C221 11.6002 221 11.5002 220.9 11.5002L219.6 10.7002C219.5 10.7002 219.4 10.8002 219.4 10.9002V14.0002C219.4 14.1002 219.5 14.1002 219.6 14.0002Z" fill="#375A64"/>
<path d="M223.3 14.7003L239.5 5.40023C239.9 5.10023 240.3 5.30023 240.3 5.80023C240.3 6.30023 239.9 6.90024 239.5 7.10024L223.3 16.4002C222.9 16.7002 222.5 16.5002 222.5 16.0002C222.6 15.5002 222.9 14.9003 223.3 14.7003Z" fill="#E1E1E1"/>
<path d="M219.6 19.0998L220.9 16.7998C221 16.6998 221 16.5998 220.9 16.5998L219.6 15.7998C219.5 15.7998 219.4 15.8998 219.4 15.9998V19.0998C219.4 19.1998 219.5 19.1998 219.6 19.0998Z" fill="#375A64"/>
<path d="M223.3 19.7998L239.5 10.4998C239.9 10.1998 240.3 10.3998 240.3 10.8998C240.3 11.3998 239.9 11.9999 239.5 12.1999L223.3 21.4998C222.9 21.7998 222.5 21.5998 222.5 21.0998C222.6 20.5998 222.9 20.0998 223.3 19.7998Z" fill="#E1E1E1"/>
<path d="M219.6 24.1999L220.9 21.8999C221 21.7999 221 21.6999 220.9 21.6999L219.6 20.8999C219.5 20.8999 219.4 20.9999 219.4 21.0999V24.1999C219.4 24.2999 219.5 24.3999 219.6 24.1999Z" fill="#375A64"/>
<path d="M223.3 24.8999L239.5 15.5999C239.9 15.2999 240.3 15.4999 240.3 15.9999C240.3 16.4999 239.9 17.0999 239.5 17.2999L223.3 26.5999C222.9 26.8999 222.5 26.6999 222.5 26.1999C222.6 25.7999 222.9 25.1999 223.3 24.8999Z" fill="#E1E1E1"/>
<path d="M219.6 29.4001L220.9 27.1001C221 27.0001 221 26.9001 220.9 26.9001L219.6 26.1001C219.5 26.1001 219.4 26.2001 219.4 26.3001V29.4001C219.4 29.5001 219.5 29.5001 219.6 29.4001Z" fill="#375A64"/>
<path d="M223.3 30.1001L239.5 20.8001C239.9 20.5001 240.3 20.7002 240.3 21.2002C240.3 21.7002 239.9 22.3001 239.5 22.5001L223.3 31.8001C222.9 32.1001 222.5 31.9001 222.5 31.4001C222.6 30.9001 222.9 30.3001 223.3 30.1001Z" fill="#E1E1E1"/>
<path d="M219.6 34.5002L220.9 32.2002C221 32.1002 221 32.0002 220.9 32.0002L219.6 31.2002C219.5 31.2002 219.4 31.3002 219.4 31.4002V34.5002C219.4 34.6002 219.5 34.6002 219.6 34.5002Z" fill="#375A64"/>
<path d="M223.3 35.2003L239.5 25.9002C239.9 25.6002 240.3 25.8002 240.3 26.3002C240.3 26.8002 239.9 27.4002 239.5 27.6002L223.3 36.9002C222.9 37.2002 222.5 37.0002 222.5 36.5002C222.6 36.0002 222.9 35.5003 223.3 35.2003Z" fill="#E1E1E1"/>
<path d="M219.6 39.5998L220.9 37.2998C221 37.1998 221 37.0998 220.9 37.0998L219.6 36.2998C219.5 36.2998 219.4 36.3998 219.4 36.4998V39.5998C219.4 39.6998 219.5 39.6998 219.6 39.5998Z" fill="#375A64"/>
<path d="M366.8 -125.4V-38.7003C366.8 -38.5003 366.6 -38.1003 366.4 -38.0003L255.7 25.9997V-60.7003C255.7 -60.9003 255.9 -61.3003 256.1 -61.4003L257.5 -62.2003C258.2 -62.6003 258.7 -63.4003 258.7 -64.2003V-69.2003C258.7 -69.4003 258.9 -69.8003 259.1 -69.9003L275 -79.1003V-74.4003C275 -73.6003 275.6 -73.1003 276.2 -73.1003C276.4 -73.1003 276.7 -73.2003 276.9 -73.3003L366.8 -125.4ZM367.1 -126.3C367 -126.3 366.9 -126.3 366.7 -126.2L276.5 -74.1003C276.4 -74.0003 276.3 -74.0003 276.1 -74.0003C275.8 -74.0003 275.7 -74.2003 275.7 -74.6003V-79.6003C275.7 -80.0003 275.5 -80.2003 275.3 -80.2003C275.2 -80.2003 275.1 -80.2003 274.9 -80.1003L258.7 -70.8003C258.3 -70.5003 257.9 -69.9003 257.9 -69.4003V-64.4003C257.9 -63.9003 257.5 -63.3003 257.1 -63.0003L255.7 -62.2003C255.3 -61.9003 254.9 -61.3003 254.9 -60.8003V26.2997C254.9 26.6997 255.1 26.8997 255.3 26.8997C255.4 26.8997 255.5 26.8997 255.7 26.7997L366.7 -37.3003C367.1 -37.6003 367.5 -38.2003 367.5 -38.7003V-125.8C367.5 -126.1 367.3 -126.3 367.1 -126.3Z" fill="#E1E1E1"/>
<path d="M261.4 -1.00036L287 -15.8004C287.3 -16.0004 287.5 -15.8004 287.5 -15.5004C287.5 -15.2004 287.3 -14.8004 287 -14.6004L261.4 0.19965C261.1 0.399651 260.9 0.199631 260.9 -0.100369C260.9 -0.40037 261.1 -0.800364 261.4 -1.00036Z" fill="#0A022D"/>
<path d="M260.9 17.1997C260.9 17.1997 260.8 17.1997 260.8 17.0997C260.7 16.9997 260.7 16.8997 260.8 16.7997L263.8 13.6997L266.8 13.2997L269.8 10.6997L272.7 9.89969L275.7 3.89969L278.7 5.39969L281.6 2.79968L284.5 2.29968L287.4 -2.70032C287.5 -2.80032 287.6 -2.80029 287.6 -2.80029C287.7 -2.70029 287.7 -2.60031 287.7 -2.60031L284.7 2.5997L281.7 3.19971L278.7 5.89969L275.8 4.49969L272.9 10.2997L269.9 11.0997L266.9 13.6997L263.9 14.0997L261 17.0997C261 17.1997 260.9 17.1997 260.9 17.1997Z" fill="#0A022D"/>
<g opacity="0.3">
<path d="M260.9 17.1997C260.9 17.1997 260.8 17.1997 260.8 17.0997C260.7 16.9997 260.7 16.8997 260.8 16.7997L263.8 13.6997L266.8 13.2997L269.8 10.6997L272.7 9.89969L275.7 3.89969L278.7 5.39969L281.6 2.79968L284.5 2.29968L287.4 -2.70032C287.5 -2.80032 287.6 -2.80029 287.6 -2.80029C287.7 -2.70029 287.7 -2.60031 287.7 -2.60031L284.7 2.5997L281.7 3.19971L278.7 5.89969L275.8 4.49969L272.9 10.2997L269.9 11.0997L266.9 13.6997L263.9 14.0997L261 17.0997C261 17.1997 260.9 17.1997 260.9 17.1997Z" fill="#0A022D"/>
</g>
<path d="M262.4 9.8996V9.9996L262.3 10.0996L262.1 10.1996H262V10.0996V6.3996L261.3 7.59961C261.3 7.69961 261.2 7.69962 261.2 7.69962H261.1L261 7.59961V7.4996C261 7.3996 261 7.3996 261 7.3996L261.9 5.79959C261.9 5.79959 261.9 5.69962 262 5.69962C262 5.69962 262 5.69962 262.1 5.69962L262.3 5.59961H262.4V5.69962V9.8996Z" fill="#0A022D"/>
<path d="M264.3 6.49969C264.4 6.29969 264.5 6.19969 264.5 5.99969C264.5 5.89969 264.6 5.69969 264.6 5.49969C264.6 5.29969 264.6 5.09969 264.5 4.99969C264.4 4.89969 264.3 4.89969 264.1 4.99969C264 5.09969 263.9 5.09971 263.8 5.19971C263.7 5.29971 263.7 5.39969 263.6 5.49969C263.6 5.59969 263.5 5.69968 263.5 5.79968C263.5 5.89968 263.5 5.9997 263.4 6.0997C263.4 6.1997 263.4 6.19971 263.4 6.19971C263.4 6.19971 263.4 6.29968 263.3 6.29968L263.1 6.39969C263.1 6.39969 263.1 6.39969 263 6.39969C263 6.39969 263 6.39968 263 6.29968C263 6.09968 263 5.99968 263.1 5.79968C263.1 5.59968 263.2 5.39971 263.3 5.19971C263.4 4.99971 263.5 4.79971 263.6 4.69971C263.7 4.49971 263.9 4.39968 264 4.29968C264.2 4.19968 264.3 4.19971 264.4 4.19971C264.5 4.19971 264.6 4.19968 264.7 4.29968C264.8 4.39968 264.8 4.4997 264.9 4.5997C264.9 4.6997 265 4.8997 265 5.0997C265 5.1997 265 5.39969 265 5.49969C265 5.59969 265 5.69969 264.9 5.89969C264.9 5.99969 264.8 6.09968 264.8 6.29968C264.7 6.39968 264.7 6.59971 264.6 6.69971L263.6 8.5997L264.9 7.79968H265V7.89969V8.0997V8.19971L264.9 8.29968L263 9.39969H262.9V9.29968V9.0997V8.99969C262.9 8.99969 262.9 8.89968 263 8.79968L264.3 6.49969Z" fill="#0A022D"/>
<path d="M267.7 4.09962C267.7 4.29962 267.7 4.49963 267.7 4.69963C267.7 4.89963 267.7 5.09961 267.7 5.29961C267.7 5.59961 267.7 5.79962 267.6 6.09962C267.6 6.39962 267.5 6.5996 267.4 6.7996C267.3 6.9996 267.2 7.19961 267.1 7.39961C267 7.59961 266.8 7.6996 266.6 7.7996C266.4 7.8996 266.2 7.99961 266.1 7.89961C266 7.89961 265.8 7.79963 265.8 7.69963C265.7 7.59963 265.6 7.39963 265.6 7.19963C265.6 6.99963 265.5 6.79962 265.5 6.49962C265.5 6.29962 265.5 6.09961 265.5 5.89961C265.5 5.69961 265.5 5.49961 265.5 5.29961C265.5 4.99961 265.5 4.79962 265.6 4.49962C265.6 4.19962 265.7 3.99961 265.8 3.79961C265.9 3.59961 266 3.39963 266.1 3.19963C266.2 2.99963 266.4 2.89961 266.6 2.79961C266.8 2.69961 267 2.59963 267.1 2.69963C267.2 2.69963 267.4 2.79961 267.4 2.89961C267.5 2.99961 267.6 3.19961 267.6 3.39961C267.7 3.59961 267.7 3.89962 267.7 4.09962ZM265.9 6.29961C265.9 6.6996 266 6.99962 266.1 7.09962C266.2 7.19962 266.4 7.19962 266.6 7.09962C266.8 6.99962 267 6.79962 267.1 6.49962C267.2 6.19962 267.3 5.89962 267.3 5.49962C267.3 5.29962 267.3 5.09961 267.3 4.89961C267.3 4.69961 267.3 4.49961 267.3 4.29961C267.3 3.89961 267.2 3.59962 267.1 3.49962C267 3.39962 266.8 3.39962 266.6 3.49962C266.4 3.59962 266.2 3.79962 266.1 4.09962C266 4.39962 265.9 4.69962 265.9 5.09962C265.9 5.29962 265.9 5.49963 265.9 5.69963C265.9 5.89963 265.9 6.09961 265.9 6.29961Z" fill="#0A022D"/>
<path d="M261.4 19.4996L287 4.69965C287.3 4.49965 287.5 4.69964 287.5 4.99964C287.5 5.29964 287.3 5.69963 287 5.89963L261.4 20.6996C261.1 20.8997 260.9 20.6996 260.9 20.3996C260.9 20.0996 261.1 19.6996 261.4 19.4996Z" fill="#0A022D"/>
<path d="M261.4 2.39954L267.1 -0.900449C267.4 -1.10045 267.6 -0.900461 267.6 -0.600461C267.6 -0.300461 267.4 0.0995331 267.1 0.299533L261.4 3.59955C261.1 3.79955 260.9 3.59953 260.9 3.29953C260.9 2.99953 261.1 2.59954 261.4 2.39954Z" fill="#0A022D"/>
<path d="M296.9 -1.00036L322.5 -15.8004C322.8 -16.0004 323 -15.8004 323 -15.5004C323 -15.2004 322.8 -14.8004 322.5 -14.6004L296.9 0.19965C296.6 0.399651 296.4 0.199631 296.4 -0.100369C296.4 -0.500369 296.7 -0.900363 296.9 -1.00036Z" fill="#0A022D"/>
</svg>
